<svg xmlns="http://www.w3.org/2000/svg" width="512" height="362" viewBox="0 0 512 362">
  <path d="M452.646,263.482 C456.399,258.483 459.831,253.258 462.899,247.826 C488.015,203.357 489.353,146.262 466.391,98.821 C438.539,41.275 375.827,1.858 310.339,0.738 C278.951,0.203 247.028,8.245 218.071,24.001 C189.535,39.526 165.264,61.742 147.883,88.248 C141.553,97.9 136.068,108.216 131.479,119.022 C124.848,110.089 116.219,102.734 106.268,97.59 L130.23,20.515 C132.275,12.488 127.424,4.322 119.396,2.277 C111.369,0.231 103.203,5.084 101.158,13.111 L81.669,72.625 L64.111,13.218 C61.763,5.274 53.421,0.737 45.475,3.084 C37.529,5.431 32.994,13.776 35.342,21.72 L55.961,91.489 C23.909,99.151 0,128.02 0,162.386 C0,179.353 13.804,193.157 30.771,193.157 L36.781,193.157 L36.781,228.984 C36.781,301.882 96.089,361.19 168.987,361.19 L497,361.19 C505.284,361.19 512,354.474 512,346.19 L512,341.227 C512,304.135 486.811,272.834 452.646,263.482 Z M172.969,104.7 C203.031,58.86 256.761,29.819 309.826,30.735 C364.277,31.667 416.344,64.281 439.387,111.892 C458.127,150.609 457.127,197.042 436.778,233.074 C416.145,269.607 375.09,293.683 334.537,293.088 C296.963,292.497 261.36,270.713 245.944,238.878 C230.104,206.17 237.609,164.19 263.401,141.229 C276.103,129.921 292.343,123.522 308.205,123.522 C308.756,123.522 309.307,123.53 309.856,123.545 C326.5,124.015 342.723,132.048 352.194,144.511 C360.25,155.112 363.252,168.771 360.029,180.158 C356.836,191.446 346.853,200.53 336.294,201.759 C332.355,202.215 328.365,201.32 326.389,199.63 C331.902,197.933 336.175,193.115 336.883,187.017 C337.837,178.788 331.941,171.343 323.711,170.388 C313.711,169.231 304.693,173.658 299.624,182.242 C293.679,192.31 294.36,206.624 301.244,216.276 C309.271,227.534 324.037,233.382 339.762,231.557 C362.229,228.943 382.434,211.165 388.897,188.326 C394.719,167.748 389.928,144.583 376.081,126.359 C361.026,106.549 336.586,94.287 310.703,93.556 C286.779,92.875 262.25,102.09 243.455,118.82 C225.929,134.423 213.887,156.659 209.549,181.433 C205.31,205.643 208.647,230.688 218.945,251.953 C220.376,254.909 221.938,257.8 223.622,260.618 L154.309,260.618 C136.819,208.612 143.929,148.984 172.969,104.7 Z M66.78,228.984 L66.78,178.157 C66.78,169.873 60.064,163.157 51.78,163.157 L30.77,163.157 C30.349,163.157 30,162.813 29.999,162.391 C29.996,138.73 49.246,119.478 72.908,119.478 C96.568,119.478 115.817,138.727 115.817,162.386 C115.906,171.719 115.697,180.564 115.189,189.394 C113.384,220.769 118.509,252.022 130.169,281.186 C132.446,286.882 137.963,290.618 144.097,290.618 L249.052,290.618 C272.125,310.445 302.602,322.59 334.065,323.084 C334.757,323.095 335.451,323.101 336.144,323.101 C361.038,323.101 386.053,316.085 408.623,302.753 C414.803,299.103 420.674,295.035 426.219,290.618 L431.391,290.618 C455.862,290.618 476.331,308.075 481,331.19 L168.986,331.19 C112.539,331.19 66.78,285.431 66.78,228.984 Z"/>
</svg>
