<?xml version="1.0" encoding="UTF-8"?>
<svg width="340px" height="89px" viewBox="0 0 340 89" version="1.1" xmlns="http://www.w3.org/2000/svg" xmlns:xlink="http://www.w3.org/1999/xlink">
    <title>bubble copy 2</title>
    <g id="Bubble-UI" stroke="none" stroke-width="1" fill="none" fill-rule="evenodd">
        <g id="bubble-copy-2">
            <rect id="Rectangle" fill="#FFFFFF" x="0" y="0" width="340" height="89"></rect>
            <path d="M19.5093417,77.966457 C19.9333417,77.966457 20.3293417,77.920457 20.6973417,77.828457 C21.0653417,77.736457 21.3873417,77.596457 21.6633417,77.408457 C21.9393417,77.220457 22.1553417,76.982457 22.3113417,76.694457 C22.4673417,76.406457 22.5453417,76.062457 22.5453417,75.662457 C22.5453417,75.398457 22.5093417,75.164457 22.4373417,74.960457 C22.3653417,74.756457 22.2653417,74.578457 22.1373417,74.426457 C22.0093417,74.274457 21.8613417,74.148457 21.6933417,74.048457 C21.5253417,73.948457 21.3413417,73.874457 21.1413417,73.826457 L21.1413417,73.826457 L21.1413417,73.778457 C21.3013417,73.722457 21.4433417,73.634457 21.5673417,73.514457 C21.6913417,73.394457 21.7973417,73.258457 21.8853417,73.106457 C21.9733417,72.954457 22.0413417,72.790457 22.0893417,72.614457 C22.1373417,72.438457 22.1613417,72.262457 22.1613417,72.086457 C22.1613417,71.710457 22.0873417,71.398457 21.9393417,71.150457 C21.7913417,70.902457 21.5873417,70.702457 21.3273417,70.550457 C21.0673417,70.398457 20.7633417,70.292457 20.4153417,70.232457 C20.0673417,70.172457 19.6893417,70.142457 19.2813417,70.142457 L19.2813417,70.142457 L16.6053417,70.142457 L16.6053417,77.966457 L19.5093417,77.966457 Z M19.1973417,73.274457 L18.3693417,73.274457 L18.3693417,71.510457 L19.2093417,71.510457 C19.6253417,71.510457 19.9333417,71.574457 20.1333417,71.702457 C20.3333417,71.830457 20.4333417,72.046457 20.4333417,72.350457 C20.4333417,72.630457 20.3353417,72.854457 20.1393417,73.022457 C19.9433417,73.190457 19.6293417,73.274457 19.1973417,73.274457 L19.1973417,73.274457 Z M19.3653417,76.598457 L18.3693417,76.598457 L18.3693417,74.582457 L19.3653417,74.582457 C19.8533417,74.582457 20.2173417,74.656457 20.4573417,74.804457 C20.6973417,74.952457 20.8173417,75.198457 20.8173417,75.542457 C20.8173417,76.246457 20.3333417,76.598457 19.3653417,76.598457 L19.3653417,76.598457 Z M29.2253417,77.966457 L29.2253417,76.478457 L26.1293417,76.478457 L26.1293417,70.142457 L24.3653417,70.142457 L24.3653417,77.966457 L29.2253417,77.966457 Z M33.8293417,78.110457 C34.3573417,78.110457 34.8393417,78.016457 35.2753417,77.828457 C35.7113417,77.640457 36.0853417,77.370457 36.3973417,77.018457 C36.7093417,76.666457 36.9513417,76.238457 37.1233417,75.734457 C37.2953417,75.230457 37.3813417,74.658457 37.3813417,74.018457 C37.3813417,73.386457 37.2953417,72.820457 37.1233417,72.320457 C36.9513417,71.820457 36.7093417,71.398457 36.3973417,71.054457 C36.0853417,70.710457 35.7113417,70.448457 35.2753417,70.268457 C34.8393417,70.088457 34.3573417,69.998457 33.8293417,69.998457 C33.3013417,69.998457 32.8193417,70.088457 32.3833417,70.268457 C31.9473417,70.448457 31.5733417,70.708457 31.2613417,71.048457 C30.9493417,71.388457 30.7073417,71.808457 30.5353417,72.308457 C30.3633417,72.808457 30.2773417,73.378457 30.2773417,74.018457 C30.2773417,74.658457 30.3633417,75.230457 30.5353417,75.734457 C30.7073417,76.238457 30.9493417,76.666457 31.2613417,77.018457 C31.5733417,77.370457 31.9473417,77.640457 32.3833417,77.828457 C32.8193417,78.016457 33.3013417,78.110457 33.8293417,78.110457 Z M33.8293417,76.586457 C33.2933417,76.586457 32.8693417,76.356457 32.5573417,75.896457 C32.2453417,75.436457 32.0893417,74.810457 32.0893417,74.018457 C32.0893417,73.234457 32.2453417,72.622457 32.5573417,72.182457 C32.8693417,71.742457 33.2933417,71.522457 33.8293417,71.522457 C34.3653417,71.522457 34.7893417,71.742457 35.1013417,72.182457 C35.4133417,72.622457 35.5693417,73.234457 35.5693417,74.018457 C35.5693417,74.810457 35.4133417,75.436457 35.1013417,75.896457 C34.7893417,76.356457 34.3653417,76.586457 33.8293417,76.586457 Z M42.6213417,78.110457 C43.6533417,78.110457 44.4973417,77.726457 45.1533417,76.958457 L45.1533417,76.958457 L44.2173417,75.854457 C44.0253417,76.062457 43.8033417,76.236457 43.5513417,76.376457 C43.2993417,76.516457 43.0133417,76.586457 42.6933417,76.586457 C42.1173417,76.586457 41.6573417,76.364457 41.3133417,75.920457 C40.9693417,75.476457 40.7973417,74.850457 40.7973417,74.042457 C40.7973417,73.650457 40.8473417,73.298457 40.9473417,72.986457 C41.0473417,72.674457 41.1833417,72.410457 41.3553417,72.194457 C41.5273417,71.978457 41.7313417,71.812457 41.9673417,71.696457 C42.2033417,71.580457 42.4533417,71.522457 42.7173417,71.522457 C42.9973417,71.522457 43.2473417,71.580457 43.4673417,71.696457 C43.6873417,71.812457 43.8973417,71.962457 44.0973417,72.146457 L44.0973417,72.146457 L45.0333417,71.018457 C44.7693417,70.746457 44.4373417,70.508457 44.0373417,70.304457 C43.6373417,70.100457 43.1853417,69.998457 42.6813417,69.998457 C42.1853417,69.998457 41.7133417,70.090457 41.2653417,70.274457 C40.8173417,70.458457 40.4253417,70.726457 40.0893417,71.078457 C39.7533417,71.430457 39.4853417,71.860457 39.2853417,72.368457 C39.0853417,72.876457 38.9853417,73.454457 38.9853417,74.102457 C38.9853417,74.758457 39.0813417,75.336457 39.2733417,75.836457 C39.4653417,76.336457 39.7273417,76.754457 40.0593417,77.090457 C40.3913417,77.426457 40.7773417,77.680457 41.2173417,77.852457 C41.6573417,78.024457 42.1253417,78.110457 42.6213417,78.110457 Z M48.6053417,77.966457 L48.6053417,75.866457 L49.5173417,74.666457 L51.4253417,77.966457 L53.3573417,77.966457 L50.5613417,73.262457 L52.9253417,70.142457 L50.9813417,70.142457 L48.6533417,73.346457 L48.6053417,73.346457 L48.6053417,70.142457 L46.8413417,70.142457 L46.8413417,77.966457 L48.6053417,77.966457 Z M58.4133417,77.966457 L58.8933417,76.106457 L61.2813417,76.106457 L61.7613417,77.966457 L63.6333417,77.966457 L61.1853417,70.142457 L59.0613417,70.142457 L56.6133417,77.966457 L58.4133417,77.966457 Z M60.9213417,74.726457 L59.2533417,74.726457 L59.4453417,74.006457 C59.5573417,73.614457 59.6633417,73.200457 59.7633417,72.764457 C59.8633417,72.328457 59.9613417,71.902457 60.0573417,71.486457 L60.0573417,71.486457 L60.1053417,71.486457 C60.2093417,71.894457 60.3133417,72.318457 60.4173417,72.758457 C60.5213417,73.198457 60.6293417,73.614457 60.7413417,74.006457 L60.7413417,74.006457 L60.9213417,74.726457 Z M67.2893417,77.966457 C67.8653417,77.966457 68.3873417,77.886457 68.8553417,77.726457 C69.3233417,77.566457 69.7253417,77.324457 70.0613417,77.000457 C70.3973417,76.676457 70.6573417,76.266457 70.8413417,75.770457 C71.0253417,75.274457 71.1173417,74.690457 71.1173417,74.018457 C71.1173417,73.346457 71.0253417,72.766457 70.8413417,72.278457 C70.6573417,71.790457 70.3933417,71.388457 70.0493417,71.072457 C69.7053417,70.756457 69.2933417,70.522457 68.8133417,70.370457 C68.3333417,70.218457 67.7933417,70.142457 67.1933417,70.142457 L67.1933417,70.142457 L64.9853417,70.142457 L64.9853417,77.966457 L67.2893417,77.966457 Z M67.0853417,76.538457 L66.7493417,76.538457 L66.7493417,71.570457 L67.0853417,71.570457 C67.4213417,71.570457 67.7253417,71.610457 67.9973417,71.690457 C68.2693417,71.770457 68.5013417,71.904457 68.6933417,72.092457 C68.8853417,72.280457 69.0353417,72.532457 69.1433417,72.848457 C69.2513417,73.164457 69.3053417,73.554457 69.3053417,74.018457 C69.3053417,74.490457 69.2513417,74.886457 69.1433417,75.206457 C69.0353417,75.526457 68.8853417,75.784457 68.6933417,75.980457 C68.5013417,76.176457 68.2693417,76.318457 67.9973417,76.406457 C67.7253417,76.494457 67.4213417,76.538457 67.0853417,76.538457 L67.0853417,76.538457 Z M75.4933417,78.110457 C75.9573417,78.110457 76.3733417,78.044457 76.7413417,77.912457 C77.1093417,77.780457 77.4193417,77.604457 77.6713417,77.384457 C77.9233417,77.164457 78.1153417,76.908457 78.2473417,76.616457 C78.3793417,76.324457 78.4453417,76.014457 78.4453417,75.686457 C78.4453417,75.134457 78.3073417,74.690457 78.0313417,74.354457 C77.7553417,74.018457 77.3773417,73.754457 76.8973417,73.562457 L76.8973417,73.562457 L75.8893417,73.154457 C75.7213417,73.082457 75.5653417,73.016457 75.4213417,72.956457 C75.2773417,72.896457 75.1513417,72.832457 75.0433417,72.764457 C74.9353417,72.696457 74.8513417,72.620457 74.7913417,72.536457 C74.7313417,72.452457 74.7013417,72.350457 74.7013417,72.230457 C74.7013417,72.006457 74.7913417,71.832457 74.9713417,71.708457 C75.1513417,71.584457 75.3933417,71.522457 75.6973417,71.522457 C76.0093417,71.522457 76.2933417,71.576457 76.5493417,71.684457 C76.8053417,71.792457 77.0613417,71.946457 77.3173417,72.146457 L77.3173417,72.146457 L78.2173417,71.030457 C77.8813417,70.694457 77.4913417,70.438457 77.0473417,70.262457 C76.6033417,70.086457 76.1533417,69.998457 75.6973417,69.998457 C75.2893417,69.998457 74.9153417,70.058457 74.5753417,70.178457 C74.2353417,70.298457 73.9413417,70.464457 73.6933417,70.676457 C73.4453417,70.888457 73.2533417,71.136457 73.1173417,71.420457 C72.9813417,71.704457 72.9133417,72.006457 72.9133417,72.326457 C72.9133417,72.614457 72.9573417,72.872457 73.0453417,73.100457 C73.1333417,73.328457 73.2513417,73.528457 73.3993417,73.700457 C73.5473417,73.872457 73.7153417,74.022457 73.9033417,74.150457 C74.0913417,74.278457 74.2853417,74.382457 74.4853417,74.462457 L74.4853417,74.462457 L75.5053417,74.894457 C75.6733417,74.966457 75.8273417,75.032457 75.9673417,75.092457 C76.1073417,75.152457 76.2273417,75.216457 76.3273417,75.284457 C76.4273417,75.352457 76.5033417,75.430457 76.5553417,75.518457 C76.6073417,75.606457 76.6333417,75.710457 76.6333417,75.830457 C76.6333417,76.062457 76.5433417,76.246457 76.3633417,76.382457 C76.1833417,76.518457 75.9093417,76.586457 75.5413417,76.586457 C75.2133417,76.586457 74.8793417,76.510457 74.5393417,76.358457 C74.1993417,76.206457 73.8893417,76.010457 73.6093417,75.770457 L73.6093417,75.770457 L72.6013417,76.982457 C73.0013417,77.358457 73.4553417,77.640457 73.9633417,77.828457 C74.4713417,78.016457 74.9813417,78.110457 75.4933417,78.110457 Z M86.3573417,78.110457 C86.8853417,78.110457 87.3673417,78.016457 87.8033417,77.828457 C88.2393417,77.640457 88.6133417,77.370457 88.9253417,77.018457 C89.2373417,76.666457 89.4793417,76.238457 89.6513417,75.734457 C89.8233417,75.230457 89.9093417,74.658457 89.9093417,74.018457 C89.9093417,73.386457 89.8233417,72.820457 89.6513417,72.320457 C89.4793417,71.820457 89.2373417,71.398457 88.9253417,71.054457 C88.6133417,70.710457 88.2393417,70.448457 87.8033417,70.268457 C87.3673417,70.088457 86.8853417,69.998457 86.3573417,69.998457 C85.8293417,69.998457 85.3473417,70.088457 84.9113417,70.268457 C84.4753417,70.448457 84.1013417,70.708457 83.7893417,71.048457 C83.4773417,71.388457 83.2353417,71.808457 83.0633417,72.308457 C82.8913417,72.808457 82.8053417,73.378457 82.8053417,74.018457 C82.8053417,74.658457 82.8913417,75.230457 83.0633417,75.734457 C83.2353417,76.238457 83.4773417,76.666457 83.7893417,77.018457 C84.1013417,77.370457 84.4753417,77.640457 84.9113417,77.828457 C85.3473417,78.016457 85.8293417,78.110457 86.3573417,78.110457 Z M86.3573417,76.586457 C85.8213417,76.586457 85.3973417,76.356457 85.0853417,75.896457 C84.7733417,75.436457 84.6173417,74.810457 84.6173417,74.018457 C84.6173417,73.234457 84.7733417,72.622457 85.0853417,72.182457 C85.3973417,71.742457 85.8213417,71.522457 86.3573417,71.522457 C86.8933417,71.522457 87.3173417,71.742457 87.6293417,72.182457 C87.9413417,72.622457 88.0973417,73.234457 88.0973417,74.018457 C88.0973417,74.810457 87.9413417,75.436457 87.6293417,75.896457 C87.3173417,76.356457 86.8933417,76.586457 86.3573417,76.586457 Z M93.5653417,77.966457 L93.5653417,75.194457 C93.5653417,74.730457 93.5393417,74.250457 93.4873417,73.754457 C93.4353417,73.258457 93.3893417,72.794457 93.3493417,72.362457 L93.3493417,72.362457 L93.3973417,72.362457 L94.1653417,74.066457 L96.2053417,77.966457 L98.0173417,77.966457 L98.0173417,70.142457 L96.3373417,70.142457 L96.3373417,72.902457 C96.3373417,73.366457 96.3633417,73.854457 96.4153417,74.366457 C96.4673417,74.878457 96.5133417,75.342457 96.5533417,75.758457 L96.5533417,75.758457 L96.5053417,75.758457 L95.7373417,74.030457 L93.6973417,70.142457 L91.8853417,70.142457 L91.8853417,77.966457 L93.5653417,77.966457 Z" id="BLOCKADSON" fill="#4A4A4A" fill-rule="nonzero"></path>
            <g id="logo" transform="translate(15.681342, 23.522013)">
                <g id="Group">
                    <g id="logo-abp">
                        <polygon id="Fill-1" fill="#D8D9D9" points="6.96174249 7.27044025e-05 4.78993709e-05 7.04464461 4.78993709e-05 17.0073289 6.96174249 24.0519008 16.8069792 24.0519008 23.7689133 17.0073289 23.7689133 7.04464461 16.8069792 7.27044025e-05"></polygon>
                        <polygon id="Fill-2" fill="#FFFFFF" points="7.02683774 0.158859119 0.15687044 7.11036939 0.15687044 16.9414587 7.02683774 23.892969 16.7422672 23.892969 23.611995 16.9414587 23.611995 7.11036939 16.7422672 0.158859119"></polygon>
                        <polygon id="Fill-3" fill="#CA0000" points="7.47989394 22.7860444 1.25082023 16.4828151 1.25082023 7.569013 7.47989394 1.26578365 16.2890673 1.26578365 22.5179015 7.569013 22.5179015 16.4828151 16.2890673 22.7860444"></polygon>
                        <path d="M6.07522093,12.6322445 L5.90877062,11.8567309 C5.80506848,11.434803 5.70519829,10.9867016 5.60916005,10.5126688 C5.51288231,10.0388785 5.41660458,9.58205249 5.32056634,9.14267556 L5.27625942,9.14267556 C5.18740609,9.59077702 5.09663678,10.0495418 5.00443049,10.5192122 C4.91174521,10.9888827 4.81379099,11.434803 4.71032835,11.8567309 L4.53262169,12.6322445 L6.07522093,12.6322445 Z M6.40812156,14.1185649 L4.19972106,14.1185649 L3.75593338,16.1218135 L2.09143024,16.1218135 L4.35515452,7.6951309 L6.31926823,7.6951309 L8.583232,16.1218135 L6.85190923,16.1218135 L6.40812156,14.1185649 Z" id="Fill-4" fill="#FFFFFF"></path>
                        <path d="M12.1452927,14.6484345 C13.0402924,14.6484345 13.4879121,14.26504 13.4879121,13.4982509 C13.4879121,13.1277008 13.377025,12.8584522 13.1550114,12.690505 C12.9329978,12.5223155 12.5962653,12.4384631 12.1452927,12.4384631 L11.2241878,12.4384631 L11.2241878,14.6484345 L12.1452927,14.6484345 Z M11.9898592,11.0941587 C12.38934,11.0941587 12.6796102,11.0018241 12.8609093,10.8164278 C13.0422084,10.631274 13.1329777,10.379232 13.1329777,10.0603021 C13.1329777,9.74161442 13.0402924,9.5133226 12.8554009,9.37542658 C12.6705093,9.23753057 12.385508,9.16846138 12.0008761,9.16846138 L11.2241878,9.16846138 L11.2241878,11.0941587 L11.9898592,11.0941587 Z M9.59297469,7.69522784 L12.0674562,7.69522784 C12.4449032,7.69522784 12.7943292,7.72746013 13.1162129,7.79216704 C13.4380967,7.85687396 13.7190265,7.97101987 13.9597209,8.13460478 C14.1999362,8.29843203 14.3886597,8.51387941 14.5256519,8.78070457 C14.6624046,9.04801442 14.7309007,9.38415111 14.7309007,9.78887229 C14.7309007,9.97863078 14.7067115,10.1681469 14.6588122,10.3576631 C14.6104338,10.5471792 14.5383453,10.7238509 14.442307,10.8874358 C14.3460293,11.0512631 14.2202934,11.1976413 14.0650995,11.3268127 C13.909666,11.4562266 13.7283669,11.5509847 13.5212021,11.6113293 L13.5212021,11.6629494 C14.0389943,11.7749142 14.4293742,11.9906039 14.6921022,12.3090492 C14.9545908,12.6279792 15.0858351,13.0717184 15.0858351,13.6402668 C15.0858351,14.0711616 15.0137465,14.4417117 14.8695694,14.7519171 C14.7253923,15.0621226 14.5256519,15.3185268 14.2703483,15.5208874 C14.0150446,15.7234903 13.7171105,15.8742308 13.377025,15.9731088 C13.0367,16.0724714 12.6705093,16.1219104 12.2784529,16.1219104 L9.59297469,16.1219104 L9.59297469,7.69522784 Z" id="Fill-6" fill="#FFFFFF"></path>
                        <path d="M18.7479336,11.7533937 C19.6357484,11.7533937 20.0795361,11.3055346 20.0795361,10.4093317 C20.0795361,9.96995472 19.9667331,9.65974927 19.741127,9.4787153 C19.5152815,9.29768134 19.1842969,9.20728553 18.7479336,9.20728553 L17.838085,9.20728553 L17.838085,11.7533937 L18.7479336,11.7533937 Z M16.2066325,7.69527631 L18.8478038,7.69527631 C19.2398601,7.69527631 19.6079668,7.74035304 19.9518843,7.83099119 C20.2960413,7.921387 20.5956518,8.07212746 20.850716,8.28321258 C21.1060196,8.49454004 21.3074365,8.77445199 21.455685,9.12343312 C21.6034546,9.47217191 21.6774591,9.90088553 21.6774591,10.4093317 C21.6774591,10.9003287 21.6015386,11.3268612 21.4499371,11.6886868 C21.2983356,12.0507547 21.0930868,12.3478734 20.8341907,12.5805275 C20.5750551,12.8131816 20.2754445,12.9857333 19.935359,13.0974558 C19.5947945,13.2096629 19.2324357,13.2656453 18.8478038,13.2656453 L17.838085,13.2656453 L17.838085,16.1217166 L16.2066325,16.1217166 L16.2066325,7.69527631 Z" id="Fill-8" fill="#FFFFFF"></path>
                    </g>
                    <path d="M31.3182055,11.1237736 L30.5637904,13.359434 L34.7669602,13.359434 L34.0125451,11.1237736 C33.773047,10.4088434 33.5455273,9.72421711 33.329979,9.06987421 C33.1144308,8.41553132 32.9048731,7.71878776 32.7012998,6.97962264 L32.6294507,6.97962264 C32.4258774,7.71878776 32.2163197,8.41553132 32.0007715,9.06987421 C31.7852232,9.72421711 31.5577035,10.4088434 31.3182055,11.1237736 Z M28.0849979,18.1761006 L32.2522432,6.19805031 L33.0785073,6.19805031 L37.2457526,18.1761006 L36.3835639,18.1761006 L35.0004696,14.0683019 L30.3123187,14.0683019 L28.9112621,18.1761006 L28.0849979,18.1761006 Z M41.6413752,18.3942138 C40.5516591,18.3942138 39.6834917,18.0034316 39.0368469,17.2218553 C38.3902022,16.4402791 38.0668847,15.3103428 38.0668847,13.8320126 C38.0668847,13.1291998 38.1686698,12.4930427 38.3722431,11.923522 C38.5758165,11.3540013 38.8542288,10.8693102 39.2074884,10.469434 C39.5607481,10.0695577 39.9678886,9.76359645 40.4289224,9.55154088 C40.8899561,9.33948531 41.3779261,9.23345912 41.8928469,9.23345912 C42.4197426,9.23345912 42.8777758,9.32736803 43.2669601,9.51518868 C43.6561445,9.70300932 44.0662787,9.96656015 44.4973752,10.3058491 L44.4614507,8.7063522 L44.4614507,5.10748428 L45.2517903,5.10748428 L45.2517903,18.1761006 L44.5692243,18.1761006 L44.4973752,17.0491824 L44.4434884,17.0491824 C44.0962163,17.4005888 43.686082,17.7126087 43.2130733,17.9852516 C42.7400647,18.2578944 42.2161705,18.3942138 41.6413752,18.3942138 Z M41.7491488,17.6853459 C42.2281449,17.6853459 42.6861781,17.5611438 43.123262,17.3127358 C43.560346,17.0643279 44.0064044,16.7098975 44.4614507,16.249434 L44.4614507,11.0692453 C44.0064044,10.6572516 43.578308,10.3664369 43.1771488,10.1967925 C42.7759896,10.027148 42.3658553,9.94232704 41.9467337,9.94232704 C41.5156372,9.94232704 41.114484,10.0422946 40.743262,10.2422327 C40.37204,10.4421708 40.0517162,10.7148096 39.7822809,11.0601572 C39.5128456,11.4055049 39.3002942,11.8174924 39.1446205,12.2961321 C38.9889468,12.7747718 38.9111111,13.2867268 38.9111111,13.8320126 C38.9111111,14.4136507 38.9739784,14.9407524 39.0997148,15.4133333 C39.2254513,15.8859143 39.4080658,16.2888138 39.6475639,16.622044 C39.887062,16.9552742 40.1834363,17.2157957 40.536696,17.4036164 C40.8899556,17.591437 41.2941025,17.6853459 41.7491488,17.6853459 Z M51.6771488,18.3942138 C51.2580272,18.3942138 50.8239435,18.2942463 50.3748846,18.0943082 C49.9258258,17.8943701 49.4977294,17.6247606 49.0905827,17.2854717 L49.0546582,17.2854717 L48.9648469,18.1761006 L48.3002431,18.1761006 L48.3002431,5.10748428 L49.0905827,5.10748428 L49.0905827,8.88811321 L49.0546582,10.5966667 C49.4977296,10.2210254 49.9707312,9.89991748 50.4736771,9.63333333 C50.976623,9.36674919 51.4975234,9.23345912 52.036394,9.23345912 C53.1859847,9.23345912 54.0481648,9.63635865 54.6229601,10.4421698 C55.1977554,11.247981 55.4851488,12.3294481 55.4851488,13.6866038 C55.4851488,14.4257689 55.3833636,15.0861606 55.1797903,15.6677987 C54.9762169,16.2494369 54.6978046,16.743216 54.344545,17.1491509 C53.9912854,17.5550859 53.5841448,17.8640765 53.123111,18.0761321 C52.6620773,18.2881876 52.1800947,18.3942138 51.6771488,18.3942138 Z M51.6412242,17.6853459 C52.0723207,17.6853459 52.4734739,17.5884077 52.8446959,17.3945283 C53.2159179,17.2006489 53.5332481,16.9280101 53.7966959,16.5766038 C54.0601438,16.2251974 54.2667078,15.804122 54.416394,15.3133648 C54.5660803,14.8226076 54.6409223,14.2803594 54.6409223,13.6866038 C54.6409223,13.1534355 54.5900298,12.656627 54.4882431,12.1961635 C54.3864564,11.7357 54.2277913,11.3388591 54.0122431,11.0056289 C53.7966949,10.6723988 53.5152889,10.4118772 53.1680167,10.2240566 C52.8207445,10.036236 52.4016292,9.94232704 51.9106582,9.94232704 C51.4795617,9.94232704 51.0305096,10.0665292 50.5634884,10.3149371 C50.0964672,10.5633451 49.6055035,10.9177755 49.0905827,11.378239 L49.0905827,16.5584277 C49.5695788,16.9704213 50.0306057,17.261236 50.4736771,17.4308805 C50.9167485,17.600525 51.305927,17.6853459 51.6412242,17.6853459 Z M58.83896,18.3942138 C58.1324408,18.3942138 57.7791865,17.9337572 57.7791865,17.0128302 L57.7791865,5.10748428 L58.5695261,5.10748428 L58.5695261,17.1218868 C58.5695261,17.3157662 58.6054502,17.4581442 58.6772997,17.5490252 C58.7491491,17.6399061 58.8389595,17.6853459 58.9467336,17.6853459 L59.0634883,17.6853459 C59.1054005,17.6853459 59.1742552,17.6732286 59.2700544,17.6489937 L59.4137525,18.3033333 C59.3299282,18.3275683 59.2461051,18.3487735 59.1622808,18.3669497 C59.0784565,18.3851259 58.970684,18.3942138 58.83896,18.3942138 Z M64.9230355,18.3942138 C64.4081147,18.3942138 63.917151,18.291217 63.4501298,18.0852201 C62.9831086,17.8792233 62.5729743,17.5823499 62.2197147,17.1945912 C61.8664551,16.8068344 61.5850491,16.3312292 61.3754883,15.7677673 C61.1659275,15.2043054 61.0611487,14.5590602 61.0611487,13.8320126 C61.0611487,13.1049649 61.1659275,12.4536612 61.3754883,11.8780818 C61.5850491,11.3025024 61.8664551,10.8208405 62.2197147,10.4330818 C62.5729743,10.045323 62.9831086,9.74844967 63.4501298,9.54245283 C63.917151,9.33645599 64.4081147,9.23345912 64.9230355,9.23345912 C65.4379563,9.23345912 65.9319136,9.33645599 66.4049223,9.54245283 C66.8779309,9.74844967 67.2910589,10.045323 67.6443185,10.4330818 C67.9975781,10.8208405 68.2789841,11.3025024 68.4885449,11.8780818 C68.6981057,12.4536612 68.8028845,13.1049649 68.8028845,13.8320126 C68.8028845,14.5590602 68.6981057,15.2043054 68.4885449,15.7677673 C68.2789841,16.3312292 67.9975781,16.8068344 67.6443185,17.1945912 C67.2910589,17.5823499 66.8779309,17.8792233 66.4049223,18.0852201 C65.9319136,18.291217 65.4379563,18.3942138 64.9230355,18.3942138 Z M64.9230355,17.6853459 C65.354132,17.6853459 65.7582789,17.591437 66.1354883,17.4036164 C66.5126977,17.2157957 66.8360153,16.9522449 67.1054506,16.612956 C67.3748859,16.2736671 67.5874372,15.8677382 67.7431109,15.3951572 C67.8987847,14.9225763 67.9766204,14.4015332 67.9766204,13.8320126 C67.9766204,13.2503745 67.8987847,12.7232728 67.7431109,12.2506918 C67.5874372,11.7781108 67.3748859,11.3691527 67.1054506,11.023805 C66.8360153,10.6784574 66.5126977,10.4118772 66.1354883,10.2240566 C65.7582789,10.036236 65.354132,9.94232704 64.9230355,9.94232704 C64.491939,9.94232704 64.0907858,10.036236 63.7195638,10.2240566 C63.3483418,10.4118772 63.0280179,10.6784574 62.7585826,11.023805 C62.4891473,11.3691527 62.276596,11.7781108 62.1209223,12.2506918 C61.9652485,12.7232728 61.8874128,13.2503745 61.8874128,13.8320126 C61.8874128,14.4015332 61.9652485,14.9225763 62.1209223,15.3951572 C62.276596,15.8677382 62.4891473,16.2736671 62.7585826,16.612956 C63.0280179,16.9522449 63.3483418,17.2157957 63.7195638,17.4036164 C64.0907858,17.591437 64.491939,17.6853459 64.9230355,17.6853459 Z M74.3301298,18.3942138 C73.7673093,18.3942138 73.2494026,18.291217 72.7763939,18.0852201 C72.3033853,17.8792233 71.8902573,17.5823499 71.5369977,17.1945912 C71.1837381,16.8068344 70.9083194,16.3312292 70.7107335,15.7677673 C70.5131476,15.2043054 70.4143562,14.5590602 70.4143562,13.8320126 C70.4143562,13.1049649 70.5221287,12.4536612 70.7376769,11.8780818 C70.9532252,11.3025024 71.2406185,10.8208405 71.5998656,10.4330818 C71.9591127,10.045323 72.3752343,9.74844967 72.848243,9.54245283 C73.3212516,9.33645599 73.8211963,9.23345912 74.348092,9.23345912 C74.9468372,9.23345912 75.4437882,9.34251463 75.83896,9.56062893 C76.2341317,9.77874323 76.5813987,10.0271475 76.8807713,10.3058491 L76.4137524,10.8693082 C76.1383296,10.602724 75.8329742,10.3815837 75.4976769,10.2058805 C75.1623797,10.0301773 74.7851759,9.94232704 74.3660543,9.94232704 C73.9229829,9.94232704 73.5128486,10.036236 73.1356392,10.2240566 C72.7584298,10.4118772 72.4291249,10.6784574 72.1477147,11.023805 C71.8663045,11.3691527 71.6447721,11.7781108 71.4831109,12.2506918 C71.3214497,12.7232728 71.2406203,13.2503745 71.2406203,13.8320126 C71.2406203,14.4015332 71.3154624,14.9225763 71.4651486,15.3951572 C71.6148349,15.8677382 71.8243926,16.2736671 72.0938279,16.612956 C72.3632632,16.9522449 72.6925681,17.2157957 73.0817524,17.4036164 C73.4709367,17.591437 73.8990331,17.6853459 74.3660543,17.6853459 C74.8211006,17.6853459 75.2432096,17.5884077 75.6323939,17.3945283 C76.0215783,17.2006489 76.3658515,16.964362 76.6652241,16.6856604 L77.0783562,17.2491195 C76.7071342,17.5762909 76.2940063,17.8489297 75.83896,18.067044 C75.3839137,18.2851583 74.8809753,18.3942138 74.3301298,18.3942138 Z M78.9412995,18.1761006 L78.9412995,5.10748428 L79.7316392,5.10748428 L79.7316392,14.7408176 L79.7675637,14.7408176 L84.0246203,9.45157233 L84.9406958,9.45157233 L82.1385826,12.9050314 L85.4077146,18.1761006 L84.5275637,18.1761006 L81.6715637,13.5048428 L79.7316392,15.7950314 L79.7316392,18.1761006 L78.9412995,18.1761006 Z M90.1933749,18.1761006 L90.1933749,6.28893082 L93.8936013,6.28893082 C96.4981296,6.28893082 98.4380542,7.19773585 98.4380542,9.96050314 C98.4380542,12.5960377 96.4981296,13.8138365 93.9654504,13.8138365 L92.2769976,13.8138365 L92.2769976,18.1761006 L90.1933749,18.1761006 Z M92.2769976,12.1234591 L93.80379,12.1234591 C95.5461296,12.1234591 96.3903561,11.4145912 96.3903561,9.96050314 C96.3903561,8.47006289 95.4742806,7.97930818 93.731941,7.97930818 L92.2769976,7.97930818 L92.2769976,12.1234591 Z M102.22296,18.3942138 C100.750054,18.3942138 100.211186,17.4308805 100.211186,15.8859119 L100.211186,5.34377358 L102.276847,5.34377358 L102.276847,15.9949686 C102.276847,16.5038994 102.510356,16.6856604 102.725903,16.6856604 C102.815714,16.6856604 102.887564,16.6856604 103.049224,16.6493082 L103.318658,18.2124528 C103.067186,18.3215094 102.707941,18.3942138 102.22296,18.3942138 Z M107.444847,18.3942138 C105.558809,18.3942138 104.732545,17.1037107 104.732545,14.8498742 L104.732545,9.25163522 L106.798205,9.25163522 L106.798205,14.5772327 C106.798205,16.0494969 107.211337,16.5947799 108.163337,16.5947799 C108.935714,16.5947799 109.45662,16.2312579 110.121224,15.358805 L110.121224,9.25163522 L112.186884,9.25163522 L112.186884,18.1761006 L110.498431,18.1761006 L110.336771,16.8674214 L110.282884,16.8674214 C109.510507,17.7944025 108.648318,18.3942138 107.444847,18.3942138 Z M117.013601,18.3942138 C115.81013,18.3942138 114.534809,17.8671069 113.67262,17.158239 L114.642582,15.8132075 C115.432922,16.431195 116.187337,16.8128931 117.08545,16.8128931 C118.03745,16.8128931 118.486507,16.3584906 118.486507,15.7405031 C118.486507,14.995283 117.534507,14.6681132 116.600469,14.3045912 C115.432922,13.8683648 114.175563,13.1958491 114.175563,11.7054088 C114.175563,10.1422642 115.396997,9.03352201 117.372846,9.03352201 C118.612243,9.03352201 119.600167,9.54245283 120.318658,10.1059119 L119.366658,11.378239 C118.737979,10.9238365 118.127262,10.6148428 117.426733,10.6148428 C116.546582,10.6148428 116.115488,11.0328931 116.115488,11.5963522 C116.115488,12.3052201 116.959714,12.5778616 117.911714,12.9232075 C119.115186,13.3776101 120.444394,13.9592453 120.444394,15.6314465 C120.444394,17.158239 119.240922,18.3942138 117.013601,18.3942138 Z" id="AdblockPlus" fill="#000000" fill-rule="nonzero"></path>
                </g>
            </g>
            <path d="M306.641509,39.1330727 C307.587913,39.1330727 308.396924,38.784505 309.068566,38.0873574 C309.740209,37.3902098 310.076024,36.5504769 310.076024,35.5681342 C310.076024,34.5857915 309.740209,33.7460585 309.068566,33.0489109 C308.396924,32.3517633 307.587913,32.0031956 306.641509,32.0031956 C305.695106,32.0031956 304.886095,32.3517633 304.214452,33.0489109 C303.54281,33.7460585 303.206995,34.5857915 303.206995,35.5681342 C303.206995,36.5504769 303.54281,37.3902098 304.214452,38.0873574 C304.886095,38.784505 305.695106,39.1330727 306.641509,39.1330727 Z M312.741629,36.4044055 L314.468078,37.798191 C314.647118,37.9309341 314.672696,38.1167705 314.544809,38.3557052 L312.895091,41.3025659 C312.792782,41.4884048 312.626532,41.5415011 312.396339,41.4618557 L310.362966,40.6255844 C309.825846,41.0238114 309.365464,41.3025659 308.981807,41.4618557 L308.674882,43.6919125 C308.623729,43.9308483 308.495845,44.0503145 308.291227,44.0503145 L304.991791,44.0503145 C304.787174,44.0503145 304.659289,43.9308483 304.608136,43.6919125 L304.301212,41.4618557 C303.815245,41.2494676 303.354864,40.9707131 302.920053,40.6255844 L300.886679,41.4618557 C300.656485,41.5415011 300.490236,41.4884048 300.387928,41.3025659 L298.73821,38.3557052 C298.610324,38.1167705 298.635901,37.9309341 298.814941,37.798191 L300.54139,36.4044055 C300.515813,36.2185666 300.503024,35.939812 300.503024,35.5681342 C300.503024,35.1964563 300.515813,34.9177018 300.54139,34.7318629 L298.814941,33.3380774 C298.635901,33.2053342 298.610324,33.0194978 298.73821,32.7805632 L300.387928,29.8337024 C300.490236,29.6478635 300.656485,29.5947678 300.886679,29.6744127 L302.920053,30.5106839 C303.457173,30.112457 303.917554,29.8337024 304.301212,29.6744127 L304.608136,27.4443559 C304.659289,27.2054212 304.787174,27.0859539 304.991791,27.0859539 L308.291227,27.0859539 C308.495845,27.0859539 308.623729,27.2054212 308.674882,27.4443559 L308.981807,29.6744127 C309.467773,29.8868007 309.928155,30.1655553 310.362966,30.5106839 L312.396339,29.6744127 C312.626532,29.5947678 312.792782,29.6478635 312.895091,29.8337024 L314.544809,32.7805632 C314.672696,33.0194978 314.647118,33.2053342 314.468078,33.3380774 L312.741629,34.7318629 C312.767207,34.9177018 312.779994,35.1964563 312.779994,35.5681342 C312.779994,35.939812 312.767207,36.2185666 312.741629,36.4044055 Z" id="options" fill="#BABABA"></path>
        </g>
    </g>
</svg>