<?xml version="1.0" encoding="UTF-8"?>
<svg width="494px" height="291px" viewBox="0 0 494 291" version="1.1" xmlns="http://www.w3.org/2000/svg" xmlns:xlink="http://www.w3.org/1999/xlink">
    <title>bubble copy 4</title>
    <defs>
        <filter x="-30.6%" y="-75.9%" width="161.2%" height="251.8%" filterUnits="objectBoundingBox" id="filter-1">
            <feOffset dx="0" dy="14" in="SourceAlpha" result="shadowOffsetOuter1"></feOffset>
            <feGaussianBlur stdDeviation="20" in="shadowOffsetOuter1" result="shadowBlurOuter1"></feGaussianBlur>
            <feColorMatrix values="0 0 0 0 0   0 0 0 0 0   0 0 0 0 0  0 0 0 0.05 0" type="matrix" in="shadowBlurOuter1" result="shadowMatrixOuter1"></feColorMatrix>
            <feMerge>
                <feMergeNode in="shadowMatrixOuter1"></feMergeNode>
                <feMergeNode in="SourceGraphic"></feMergeNode>
            </feMerge>
        </filter>
    </defs>
    <g id="Bubble-UI" stroke="none" stroke-width="1" fill="none" fill-rule="evenodd">
        <g id="bubble-copy-4" filter="url(#filter-1)" transform="translate(77.000000, 77.000000)">
            <rect id="Rectangle" fill="#FFFFFF" x="0" y="0" width="340" height="137"></rect>
            <path d="M19.2438574,46.129979 L20.1938616,42.4976101 C20.2869993,42.1716282 20.3708232,41.8479748 20.4453333,41.5266499 C20.5198435,41.2053249 20.5943536,40.8723578 20.6688637,40.5277484 L20.6688637,40.5277484 L20.7247463,40.5277484 C20.8085702,40.8723578 20.8854088,41.2029965 20.9552621,41.5196646 C21.0251153,41.8363326 21.1019539,42.1576576 21.1857778,42.4836394 L21.1857778,42.4836394 L22.1637233,46.129979 L23.5607883,46.129979 L25.3769727,39.3402432 L24.2872621,39.3402432 L23.2953459,43.2659958 C23.2208358,43.5919776 23.1509825,43.9086457 23.0857862,44.216 C23.0205898,44.5233543 22.9507365,44.8353655 22.8762264,45.1520335 L22.8762264,45.1520335 L22.8203438,45.1520335 C22.7458337,44.8353655 22.6689951,44.5233543 22.5898281,44.216 C22.5106611,43.9086457 22.4291656,43.5919776 22.3453417,43.2659958 L22.3453417,43.2659958 L21.2835723,39.3402432 L20.1659203,39.3402432 L19.1181216,43.2659958 C19.0342977,43.5826639 18.9551307,43.8970035 18.8806205,44.2090147 C18.8061104,44.5210259 18.7316003,44.8353655 18.6570901,45.1520335 L18.6570901,45.1520335 L18.6012075,45.1520335 C18.5360112,44.8353655 18.4708148,44.5233543 18.4056184,44.216 C18.3404221,43.9086457 18.2705688,43.5919776 18.1960587,43.2659958 L18.1960587,43.2659958 L17.1901719,39.3402432 L16.0166373,39.3402432 L17.9026751,46.129979 L19.2438574,46.129979 Z M29.2747841,46.129979 L30.2247883,42.4976101 C30.3179259,42.1716282 30.4017498,41.8479748 30.47626,41.5266499 C30.5507701,41.2053249 30.6252802,40.8723578 30.6997904,40.5277484 L30.6997904,40.5277484 L30.755673,40.5277484 C30.8394969,40.8723578 30.9163354,41.2029965 30.9861887,41.5196646 C31.0560419,41.8363326 31.1328805,42.1576576 31.2167044,42.4836394 L31.2167044,42.4836394 L32.1946499,46.129979 L33.5917149,46.129979 L35.4078994,39.3402432 L34.3181887,39.3402432 L33.3262725,43.2659958 C33.2517624,43.5919776 33.1819092,43.9086457 33.1167128,44.216 C33.0515164,44.5233543 32.9816632,44.8353655 32.907153,45.1520335 L32.907153,45.1520335 L32.8512704,45.1520335 C32.7767603,44.8353655 32.6999217,44.5233543 32.6207547,44.216 C32.5415877,43.9086457 32.4600922,43.5919776 32.3762683,43.2659958 L32.3762683,43.2659958 L31.314499,39.3402432 L30.196847,39.3402432 L29.1490482,43.2659958 C29.0652243,43.5826639 28.9860573,43.8970035 28.9115472,44.2090147 C28.837037,44.5210259 28.7625269,44.8353655 28.6880168,45.1520335 L28.6880168,45.1520335 L28.6321342,45.1520335 C28.5669378,44.8353655 28.5017414,44.5233543 28.4365451,44.216 C28.3713487,43.9086457 28.3014955,43.5919776 28.2269853,43.2659958 L28.2269853,43.2659958 L27.2210985,39.3402432 L26.0475639,39.3402432 L27.9336017,46.129979 L29.2747841,46.129979 Z M39.3057107,46.129979 L40.2557149,42.4976101 C40.3488526,42.1716282 40.4326765,41.8479748 40.5071866,41.5266499 C40.5816967,41.2053249 40.6562068,40.8723578 40.730717,40.5277484 L40.730717,40.5277484 L40.7865996,40.5277484 C40.8704235,40.8723578 40.9472621,41.2029965 41.0171153,41.5196646 C41.0869686,41.8363326 41.1638071,42.1576576 41.247631,42.4836394 L41.247631,42.4836394 L42.2255765,46.129979 L43.6226415,46.129979 L45.438826,39.3402432 L44.3491153,39.3402432 L43.3571992,43.2659958 C43.282689,43.5919776 43.2128358,43.9086457 43.1476394,44.216 C43.082443,44.5233543 43.0125898,44.8353655 42.9380797,45.1520335 L42.9380797,45.1520335 L42.8821971,45.1520335 C42.8076869,44.8353655 42.7308484,44.5233543 42.6516813,44.216 C42.5725143,43.9086457 42.4910189,43.5919776 42.407195,43.2659958 L42.407195,43.2659958 L41.3454256,39.3402432 L40.2277736,39.3402432 L39.1799748,43.2659958 C39.0961509,43.5826639 39.0169839,43.8970035 38.9424738,44.2090147 C38.8679637,44.5210259 38.7934535,44.8353655 38.7189434,45.1520335 L38.7189434,45.1520335 L38.6630608,45.1520335 C38.5978644,44.8353655 38.5326681,44.5233543 38.4674717,44.216 C38.4022753,43.9086457 38.3324221,43.5919776 38.2579119,43.2659958 L38.2579119,43.2659958 L37.2520252,39.3402432 L36.0784906,39.3402432 L37.9645283,46.129979 L39.3057107,46.129979 Z M46.9476562,46.2976268 C47.1711866,46.2976268 47.3644472,46.2161314 47.5274382,46.0531405 C47.6904291,45.8901495 47.7719245,45.6829182 47.7719245,45.4314465 C47.7719245,45.1613473 47.6904291,44.9448022 47.5274382,44.7818113 C47.3644472,44.6188204 47.1711866,44.5373249 46.9476562,44.5373249 C46.714812,44.5373249 46.5168945,44.6188204 46.3539036,44.7818113 C46.1909126,44.9448022 46.1094172,45.1613473 46.1094172,45.4314465 C46.1094172,45.6829182 46.1909126,45.8901495 46.3539036,46.0531405 C46.5168945,46.2161314 46.714812,46.2976268 46.9476562,46.2976268 Z M52.8292998,46.2976268 C53.220478,46.2976268 53.5930287,46.2161314 53.9469518,46.0531405 C54.3008749,45.8901495 54.6128861,45.6503201 54.8829853,45.333652 C55.1530846,45.0169839 55.3673012,44.6304626 55.5256352,44.1740881 C55.6839693,43.7177135 55.7631363,43.2007994 55.7631363,42.6233459 C55.7631363,42.101775 55.7049252,41.6291013 55.5885031,41.2053249 C55.4720811,40.7815486 55.2997764,40.4183117 55.0715891,40.1156143 C54.8434018,39.8129168 54.5616604,39.5800727 54.2263648,39.4170818 C53.8910692,39.2540908 53.5045479,39.1725954 53.0668008,39.1725954 C52.6849364,39.1725954 52.3123857,39.2634046 51.9491488,39.4450231 C51.5859119,39.6266415 51.2506164,39.8525003 50.9432621,40.1225996 L50.9432621,40.1225996 L50.9712034,38.8931824 L50.9712034,36.1828763 L49.8256101,36.1828763 L49.8256101,46.129979 L50.747673,46.129979 L50.8454675,45.4314465 L50.8873795,45.4314465 C51.18542,45.7015458 51.5044165,45.913434 51.844369,46.0671111 C52.1843215,46.2207883 52.5126317,46.2976268 52.8292998,46.2976268 Z M52.6337107,45.333652 C52.4101803,45.333652 52.1517233,45.2800978 51.8583396,45.1729895 C51.564956,45.0658812 51.2692439,44.8819343 50.9712034,44.6211488 L50.9712034,44.6211488 L50.9712034,41.0586331 C51.6324808,40.4439245 52.2378756,40.1365702 52.7873878,40.1365702 C53.1040559,40.1365702 53.3764836,40.1971097 53.6046709,40.3181887 C53.8328581,40.4392676 54.0191335,40.6092439 54.1634969,40.8281174 C54.3078602,41.0469909 54.4126401,41.3101048 54.4778365,41.6174591 C54.5430328,41.9248134 54.575631,42.2647659 54.575631,42.6373166 C54.575631,43.0564361 54.5267338,43.4336436 54.4289392,43.7689392 C54.3311447,44.1042348 54.196095,44.3859762 54.0237904,44.6141635 C53.8514857,44.8423508 53.6465828,45.0193124 53.4090818,45.1450482 C53.1715807,45.2707841 52.9131237,45.333652 52.6337107,45.333652 Z M58.1381468,37.9431782 C58.3616771,37.9431782 58.5502809,37.8733249 58.7039581,37.7336184 C58.8576352,37.5939119 58.9344738,37.4169504 58.9344738,37.2027338 C58.9344738,36.9792034 58.8576352,36.7999133 58.7039581,36.6648637 C58.5502809,36.5298141 58.3616771,36.4622893 58.1381468,36.4622893 C57.9146164,36.4622893 57.7260126,36.5298141 57.5723354,36.6648637 C57.4186583,36.7999133 57.3418197,36.9792034 57.3418197,37.2027338 C57.3418197,37.4169504 57.4186583,37.5939119 57.5723354,37.7336184 C57.7260126,37.8733249 57.9146164,37.9431782 58.1381468,37.9431782 Z M58.6969727,46.129979 L58.6969727,39.3402432 L57.5513795,39.3402432 L57.5513795,46.129979 L58.6969727,46.129979 Z M62.1337526,46.129979 L62.1337526,41.2123103 C62.478362,40.8677009 62.7857163,40.6069154 63.0558155,40.4299539 C63.3259147,40.2529923 63.6379259,40.1645115 63.9918491,40.1645115 C64.4389099,40.1645115 64.7648917,40.3065465 64.9697945,40.5906164 C65.1746974,40.8746862 65.2771488,41.3380461 65.2771488,41.980696 L65.2771488,41.980696 L65.2771488,46.129979 L66.4227421,46.129979 L66.4227421,41.8270189 C66.4227421,40.9515248 66.2574228,40.2902474 65.9267841,39.8431866 C65.5961454,39.3961258 65.072246,39.1725954 64.355086,39.1725954 C63.8800839,39.1725954 63.4632928,39.2820321 63.1047128,39.5009057 C62.7461328,39.7197792 62.4038519,39.9922068 62.07787,40.3181887 L62.07787,40.3181887 L62.0359581,40.3181887 L61.9381635,39.3402432 L60.9881593,39.3402432 L60.9881593,46.129979 L62.1337526,46.129979 Z M70.9212914,49.2594046 C71.4521761,49.2594046 71.9295066,49.1965367 72.353283,49.0708008 C72.7770594,48.945065 73.1379679,48.7750887 73.4360084,48.5608721 C73.7340489,48.3466555 73.9622362,48.0975122 74.1205702,47.8134423 C74.2789043,47.5293725 74.3580713,47.2290035 74.3580713,46.9123354 C74.3580713,46.3441957 74.1601537,45.9320615 73.7643187,45.6759329 C73.3684836,45.4198043 72.774731,45.29174 71.9830608,45.29174 L71.9830608,45.29174 L70.6698197,45.29174 C70.2041314,45.29174 69.8874633,45.2218868 69.7198155,45.0821803 C69.5521677,44.9424738 69.4683438,44.7655122 69.4683438,44.5512956 C69.4683438,44.3650203 69.5102558,44.2090147 69.5940797,44.0832788 C69.6779036,43.957543 69.780355,43.8434493 69.901434,43.7409979 C70.059768,43.815508 70.2274158,43.8737191 70.4043774,43.915631 C70.5813389,43.957543 70.7536436,43.978499 70.9212914,43.978499 C71.2659008,43.978499 71.5895542,43.9226164 71.8922516,43.8108512 C72.194949,43.699086 72.4580629,43.5430804 72.6815933,43.3428344 C72.9051237,43.1425884 73.0820853,42.8957736 73.212478,42.6023899 C73.3428707,42.3090063 73.4080671,41.980696 73.4080671,41.6174591 C73.4080671,41.3287324 73.3545129,41.06329 73.2474046,40.8211321 C73.1402963,40.5789741 73.0075751,40.3787282 72.8492411,40.2203941 L72.8492411,40.2203941 L74.2463061,40.2203941 L74.2463061,39.3402432 L71.8852662,39.3402432 C71.7548735,39.2936744 71.6081817,39.2540908 71.4451908,39.2214927 C71.2821999,39.1888945 71.1075667,39.1725954 70.9212914,39.1725954 C70.576682,39.1725954 70.2483718,39.228478 69.9363606,39.3402432 C69.6243494,39.4520084 69.3519217,39.6126709 69.1190776,39.8222306 C68.8862334,40.0317904 68.7022865,40.2855905 68.5672369,40.583631 C68.4321873,40.8816716 68.3646625,41.2169672 68.3646625,41.5895178 C68.3646625,41.9993235 68.4554717,42.360232 68.6370901,42.6722432 C68.8187086,42.9842544 69.021283,43.2333976 69.2448134,43.419673 L69.2448134,43.419673 L69.2448134,43.4755556 C69.0678519,43.5966345 68.9002041,43.7642823 68.74187,43.978499 C68.583536,44.1927156 68.504369,44.4441873 68.504369,44.732914 C68.504369,45.0030133 68.56258,45.2288721 68.6790021,45.4104906 C68.7954242,45.592109 68.9374591,45.734144 69.1051069,45.8365954 L69.1051069,45.8365954 L69.1051069,45.892478 C68.7977526,46.1066946 68.5555947,46.3441957 68.3786331,46.6049811 C68.2016716,46.8657666 68.1131908,47.1405227 68.1131908,47.4292495 C68.1131908,47.72729 68.1807156,47.9880755 68.3157652,48.2116059 C68.4508148,48.4351363 68.641747,48.6260685 68.8885618,48.7844025 C69.1353767,48.9427365 69.4310887,49.0614871 69.7756981,49.1406541 C70.1203075,49.2198211 70.5021719,49.2594046 70.9212914,49.2594046 Z M70.9212914,43.2101132 C70.7257023,43.2101132 70.5417554,43.1728581 70.3694507,43.098348 C70.1971461,43.0238379 70.0434689,42.9167296 69.9084193,42.7770231 C69.7733697,42.6373166 69.6685898,42.4673403 69.5940797,42.2670943 C69.5195695,42.0668484 69.4823145,41.8409895 69.4823145,41.5895178 C69.4823145,41.0865744 69.622021,40.6977247 69.901434,40.4229686 C70.180847,40.1482124 70.5207994,40.0108344 70.9212914,40.0108344 C71.3217834,40.0108344 71.6617358,40.1482124 71.9411488,40.4229686 C72.2205618,40.6977247 72.3602683,41.0865744 72.3602683,41.5895178 C72.3602683,41.8409895 72.3230133,42.0668484 72.2485031,42.2670943 C72.173993,42.4673403 72.0692131,42.6373166 71.9341635,42.7770231 C71.7991139,42.9167296 71.6454368,43.0238379 71.4731321,43.098348 C71.3008274,43.1728581 71.1168805,43.2101132 70.9212914,43.2101132 Z M71.0889392,48.4630776 C70.4742306,48.4630776 69.9922432,48.3559693 69.6429769,48.1417526 C69.2937107,47.927536 69.1190776,47.6388092 69.1190776,47.2755723 C69.1190776,47.0799832 69.1749602,46.8843941 69.2867254,46.688805 C69.3984906,46.4932159 69.5754521,46.3069406 69.8176101,46.129979 C69.9666303,46.1765479 70.117979,46.2068176 70.2716562,46.2207883 C70.4253333,46.2347589 70.5673683,46.2417442 70.697761,46.2417442 L70.697761,46.2417442 L71.8712956,46.2417442 C72.3183564,46.2417442 72.6583089,46.3022837 72.891153,46.4233627 C73.1239972,46.5444416 73.2404193,46.7633152 73.2404193,47.0799832 C73.2404193,47.2569448 73.1891936,47.4292495 73.0867421,47.5968973 C72.9842907,47.7645451 72.8399273,47.9112369 72.653652,48.0369727 C72.4673767,48.1627086 72.2415178,48.26516 71.9760755,48.344327 C71.7106331,48.4234941 71.414921,48.4630776 71.0889392,48.4630776 Z M76.2720503,46.2976268 C76.4955807,46.2976268 76.6888414,46.2161314 76.8518323,46.0531405 C77.0148232,45.8901495 77.0963187,45.6829182 77.0963187,45.4314465 C77.0963187,45.1613473 77.0148232,44.9448022 76.8518323,44.7818113 C76.6888414,44.6188204 76.4955807,44.5373249 76.2720503,44.5373249 C76.0392061,44.5373249 75.8412886,44.6188204 75.6782977,44.7818113 C75.5153068,44.9448022 75.4338113,45.1613473 75.4338113,45.4314465 C75.4338113,45.6829182 75.5153068,45.8901495 75.6782977,46.0531405 C75.8412886,46.2161314 76.0392061,46.2976268 76.2720503,46.2976268 Z M81.6786918,46.2976268 C82.0884976,46.2976268 82.4796758,46.2207883 82.8522264,46.0671111 C83.2247771,45.913434 83.5647296,45.7015458 83.8720839,45.4314465 L83.8720839,45.4314465 L83.3691405,44.6630608 C83.1549238,44.8493361 82.9150943,45.0099986 82.649652,45.1450482 C82.3842096,45.2800978 82.0931544,45.3476226 81.7764864,45.3476226 C81.4691321,45.3476226 81.1850622,45.2847547 80.9242767,45.1590189 C80.6634913,45.033283 80.4422893,44.8563215 80.2606709,44.6281342 C80.0790524,44.3999469 79.9370175,44.1275192 79.834566,43.8108512 C79.7321146,43.4941831 79.6808889,43.14026 79.6808889,42.7490818 C79.6808889,42.3579036 79.734443,42.001652 79.8415514,41.680327 C79.9486597,41.3590021 80.0953515,41.0819175 80.2816268,40.8490734 C80.4679022,40.6162292 80.6914326,40.4369392 80.952218,40.3112034 C81.2130035,40.1854675 81.4970734,40.1225996 81.8044277,40.1225996 C82.0745269,40.1225996 82.3190133,40.1784822 82.5378868,40.2902474 C82.7567603,40.4020126 82.9639916,40.546376 83.1595807,40.7233375 L83.1595807,40.7233375 L83.746348,39.9689224 C83.5041901,39.7547058 83.2247771,39.5684305 82.908109,39.4100964 C82.591441,39.2517624 82.2095765,39.1725954 81.7625157,39.1725954 C81.3247687,39.1725954 80.9079776,39.2517624 80.5121426,39.4100964 C80.1163075,39.5684305 79.7693697,39.8012746 79.4713291,40.1086289 C79.1732886,40.4159832 78.9357876,40.7908623 78.758826,41.2332662 C78.5818644,41.6756702 78.4933836,42.180942 78.4933836,42.7490818 C78.4933836,43.3079078 78.5748791,43.8085227 78.73787,44.2509266 C78.9008609,44.6933305 79.1243913,45.0658812 79.4084612,45.3685786 C79.6925311,45.671276 80.0301551,45.9017918 80.4213333,46.0601258 C80.8125115,46.2184598 81.231631,46.2976268 81.6786918,46.2976268 Z M87.7140126,46.2976268 C88.1331321,46.2976268 88.5312956,46.2184598 88.9085031,46.0601258 C89.2857107,45.9017918 89.6186778,45.671276 89.9074046,45.3685786 C90.1961314,45.0658812 90.4266471,44.6933305 90.5989518,44.2509266 C90.7712565,43.8085227 90.8574088,43.3079078 90.8574088,42.7490818 C90.8574088,42.180942 90.7712565,41.6756702 90.5989518,41.2332662 C90.4266471,40.7908623 90.1961314,40.4159832 89.9074046,40.1086289 C89.6186778,39.8012746 89.2857107,39.5684305 88.9085031,39.4100964 C88.5312956,39.2517624 88.1331321,39.1725954 87.7140126,39.1725954 C87.2948931,39.1725954 86.8967296,39.2517624 86.519522,39.4100964 C86.1423145,39.5684305 85.8093473,39.8012746 85.5206205,40.1086289 C85.2318938,40.4159832 85.0013781,40.7908623 84.8290734,41.2332662 C84.6567687,41.6756702 84.5706164,42.180942 84.5706164,42.7490818 C84.5706164,43.3079078 84.6567687,43.8085227 84.8290734,44.2509266 C85.0013781,44.6933305 85.2318938,45.0658812 85.5206205,45.3685786 C85.8093473,45.671276 86.1423145,45.9017918 86.519522,46.0601258 C86.8967296,46.2184598 87.2948931,46.2976268 87.7140126,46.2976268 Z M87.7140126,45.3476226 C87.4252858,45.3476226 87.1598435,45.2847547 86.9176855,45.1590189 C86.6755276,45.033283 86.4682963,44.8563215 86.2959916,44.6281342 C86.1236869,44.3999469 85.9909658,44.1275192 85.8978281,43.8108512 C85.8046904,43.4941831 85.7581216,43.14026 85.7581216,42.7490818 C85.7581216,42.3579036 85.8046904,42.001652 85.8978281,41.680327 C85.9909658,41.3590021 86.1236869,41.0819175 86.2959916,40.8490734 C86.4682963,40.6162292 86.6755276,40.4369392 86.9176855,40.3112034 C87.1598435,40.1854675 87.4252858,40.1225996 87.7140126,40.1225996 C88.0027393,40.1225996 88.2681817,40.1854675 88.5103396,40.3112034 C88.7524976,40.4369392 88.9597289,40.6162292 89.1320335,40.8490734 C89.3043382,41.0819175 89.4370594,41.3590021 89.5301971,41.680327 C89.6233347,42.001652 89.6699036,42.3579036 89.6699036,42.7490818 C89.6699036,43.14026 89.6233347,43.4941831 89.5301971,43.8108512 C89.4370594,44.1275192 89.3043382,44.3999469 89.1320335,44.6281342 C88.9597289,44.8563215 88.7524976,45.033283 88.5103396,45.1590189 C88.2681817,45.2847547 88.0027393,45.3476226 87.7140126,45.3476226 Z M93.7912453,46.129979 L93.7912453,41.2123103 C94.4152676,40.5137778 94.9834074,40.1645115 95.4956646,40.1645115 C95.9334116,40.1645115 96.2547365,40.3065465 96.4596394,40.5906164 C96.6645423,40.8746862 96.7669937,41.3380461 96.7669937,41.980696 L96.7669937,41.980696 L96.7669937,46.129979 L97.912587,46.129979 L97.912587,41.2123103 C98.5366094,40.5137778 99.1047491,40.1645115 99.6170063,40.1645115 C100.04544,40.1645115 100.362108,40.3065465 100.56701,40.5906164 C100.771913,40.8746862 100.874365,41.3380461 100.874365,41.980696 L100.874365,41.980696 L100.874365,46.129979 L102.019958,46.129979 L102.019958,41.8270189 C102.019958,40.9515248 101.849982,40.2902474 101.510029,39.8431866 C101.170077,39.3961258 100.650834,39.1725954 99.9523019,39.1725954 C99.5331824,39.1725954 99.1443326,39.2913459 98.7857526,39.528847 C98.4271726,39.766348 98.070921,40.0806876 97.7169979,40.4718658 C97.5772914,40.0620601 97.3607463,39.7430636 97.0673627,39.5148763 C96.773979,39.286689 96.3665017,39.1725954 95.8449308,39.1725954 C95.4351251,39.1725954 95.0555891,39.2820321 94.7063229,39.5009057 C94.3570566,39.7197792 94.0334032,39.9922068 93.7353627,40.3181887 L93.7353627,40.3181887 L93.6934507,40.3181887 L93.5956562,39.3402432 L92.645652,39.3402432 L92.645652,46.129979 L93.7912453,46.129979 Z" id="www.bing.com" fill="#585858" fill-rule="nonzero"></path>
            <path d="M20.966239,23.1802935 L20.966239,14.3029434 L23.9838994,14.3029434 L23.9838994,12.7382306 L16.0964696,12.7382306 L16.0964696,14.3029434 L19.11413,14.3029434 L19.11413,23.1802935 L20.966239,23.1802935 Z M27.4007212,23.1802935 L27.4007212,17.7037987 C28.0553459,17.0651405 28.5024067,16.7298449 29.1889644,16.7298449 C30.051153,16.7298449 30.4183816,17.2088386 30.4183816,18.5021216 L30.4183816,23.1802935 L32.2545241,23.1802935 L32.2545241,18.2626247 C32.2545241,16.2827841 31.5200671,15.1491656 29.8435891,15.1491656 C28.7738365,15.1491656 27.9914801,15.7079916 27.3368553,16.3306834 L27.4007212,14.81387 L27.4007212,11.9079748 L25.5645786,11.9079748 L25.5645786,23.1802935 L27.4007212,23.1802935 Z M35.3999161,13.9676478 C36.0545409,13.9676478 36.5016017,13.5525199 36.5016017,12.9138616 C36.5016017,12.2911698 36.0545409,11.8760419 35.3999161,11.8760419 C34.7452914,11.8760419 34.2982306,12.2911698 34.2982306,12.9138616 C34.2982306,13.5525199 34.7452914,13.9676478 35.3999161,13.9676478 Z M36.3100042,23.1802935 L36.3100042,15.3407631 L34.4738616,15.3407631 L34.4738616,23.1802935 L36.3100042,23.1802935 Z M40.844478,23.371891 C42.8243187,23.371891 43.8940713,22.2861719 43.8940713,20.9449895 C43.8940713,19.4760755 42.7125535,18.9651488 41.6428008,18.5659874 C40.7965786,18.2626247 40.0461551,18.0231279 40.0461551,17.4004361 C40.0461551,16.9054759 40.4293501,16.5382474 41.2117065,16.5382474 C41.8343983,16.5382474 42.3772579,16.8096771 42.9360839,17.2088386 L43.7823061,16.0911866 C43.1436478,15.5962264 42.2654927,15.1491656 41.1638071,15.1491656 C39.4074969,15.1491656 38.3217778,16.1231195 38.3217778,17.4962348 C38.3217778,18.8054843 39.4394298,19.3962432 40.4772495,19.7794382 C41.3075052,20.0987673 42.1537275,20.3861635 42.1537275,21.0407883 C42.1537275,21.5836478 41.754566,21.9828092 40.9083438,21.9828092 C40.110021,21.9828092 39.4394298,21.6475136 38.7369057,21.1046541 L37.874717,22.2861719 C38.6411069,22.9088637 39.7747254,23.371891 40.844478,23.371891 Z M52.1327631,23.1802935 L53.0268847,19.5399413 C53.2025157,18.8054843 53.3462138,18.0710273 53.4899119,17.2407715 L53.5537778,17.2407715 C53.7294088,18.0710273 53.8571405,18.7895178 54.0327715,19.5239748 L54.9428595,23.1802935 L57.1302642,23.1802935 L59.1260713,15.3407631 L57.4016939,15.3407631 L56.459673,19.4122096 C56.3159748,20.1626331 56.1882432,20.8970901 56.0445451,21.6634801 L55.9806792,21.6634801 C55.8050482,20.8970901 55.6453836,20.1626331 55.4537862,19.4122096 L54.4159665,15.3407631 L52.7394885,15.3407631 L51.7176352,19.4122096 C51.5260377,20.1466667 51.3663732,20.8970901 51.2226751,21.6634801 L51.1588092,21.6634801 C51.0151111,20.8970901 50.9033459,20.1626331 50.7436813,19.4122096 L49.8016604,15.3407631 L47.9495514,15.3407631 L50.0251908,23.1802935 L52.1327631,23.1802935 Z M63.9319748,23.371891 C64.9218952,23.371891 65.8639161,23.0206289 66.6143396,22.5256688 L65.9916478,21.3760839 C65.4168553,21.7433124 64.8420629,21.9508763 64.1714717,21.9508763 C62.9101216,21.9508763 62.016,21.1525535 61.8563354,19.7634717 L66.83787,19.7634717 C66.8857694,19.5718742 66.9177023,19.2206122 66.9177023,18.8693501 C66.9177023,16.6819455 65.8000503,15.1491656 63.6765115,15.1491656 C61.840369,15.1491656 60.0680922,16.7138784 60.0680922,19.2685115 C60.0680922,21.8550776 61.7605367,23.371891 63.9319748,23.371891 Z M65.3210566,18.5180881 L61.840369,18.5180881 C62.0000335,17.2567379 62.7983564,16.5701803 63.7244109,16.5701803 C64.7941635,16.5701803 65.3210566,17.3046373 65.3210566,18.5180881 Z M72.4740294,23.371891 C74.2143732,23.371891 75.8269853,21.8231447 75.8269853,19.1248134 C75.8269853,16.7138784 74.6933669,15.1491656 72.7294927,15.1491656 C71.9311698,15.1491656 71.1168805,15.548327 70.4622558,16.1231195 L70.5101551,14.81387 L70.5101551,11.9079748 L68.6740126,11.9079748 L68.6740126,23.1802935 L70.1269602,23.1802935 L70.2866247,22.3500377 L70.3345241,22.3500377 C70.9891488,23.0046625 71.7555388,23.371891 72.4740294,23.371891 Z M72.0908344,21.8550776 C71.6278071,21.8550776 71.0689811,21.6794465 70.5101551,21.2004528 L70.5101551,17.5441342 C71.1168805,16.9533753 71.65974,16.665979 72.2345325,16.665979 C73.4160503,16.665979 73.9269769,17.5920335 73.9269769,19.1567463 C73.9269769,20.9290231 73.1286541,21.8550776 72.0908344,21.8550776 Z M79.7866667,23.371891 C81.7665073,23.371891 82.83626,22.2861719 82.83626,20.9449895 C82.83626,19.4760755 81.6547421,18.9651488 80.5849895,18.5659874 C79.7387673,18.2626247 78.9883438,18.0231279 78.9883438,17.4004361 C78.9883438,16.9054759 79.3715388,16.5382474 80.1538952,16.5382474 C80.776587,16.5382474 81.3194465,16.8096771 81.8782725,17.2088386 L82.7244948,16.0911866 C82.0858365,15.5962264 81.2076813,15.1491656 80.1059958,15.1491656 C78.3496855,15.1491656 77.2639665,16.1231195 77.2639665,17.4962348 C77.2639665,18.8054843 78.3816184,19.3962432 79.4194382,19.7794382 C80.2496939,20.0987673 81.0959161,20.3861635 81.0959161,21.0407883 C81.0959161,21.5836478 80.6967547,21.9828092 79.8505325,21.9828092 C79.0522096,21.9828092 78.3816184,21.6475136 77.6790943,21.1046541 L76.8169057,22.2861719 C77.5832956,22.9088637 78.716914,23.371891 79.7866667,23.371891 Z M85.4068595,13.9676478 C86.0614843,13.9676478 86.5085451,13.5525199 86.5085451,12.9138616 C86.5085451,12.2911698 86.0614843,11.8760419 85.4068595,11.8760419 C84.7522348,11.8760419 84.305174,12.2911698 84.305174,12.9138616 C84.305174,13.5525199 84.7522348,13.9676478 85.4068595,13.9676478 Z M86.3169476,23.1802935 L86.3169476,15.3407631 L84.480805,15.3407631 L84.480805,23.1802935 L86.3169476,23.1802935 Z M91.4262138,23.371891 C92.0489057,23.371891 92.5917652,23.2281929 93.0228595,23.0844948 L92.7035304,21.7273459 C92.48,21.8231447 92.1606709,21.9029769 91.8892411,21.9029769 C91.1388176,21.9029769 90.7875556,21.4559161 90.7875556,20.5298616 L90.7875556,16.7937107 L92.7833627,16.7937107 L92.7833627,15.3407631 L90.7875556,15.3407631 L90.7875556,13.2012579 L89.2547757,13.2012579 L89.0312453,15.3407631 L87.8177945,15.4205954 L87.8177945,16.7937107 L88.9354465,16.7937107 L88.9354465,20.5298616 C88.9354465,22.2223061 89.6060377,23.371891 91.4262138,23.371891 Z M97.5254004,23.371891 C98.5153208,23.371891 99.4573417,23.0206289 100.207765,22.5256688 L99.5850734,21.3760839 C99.0102809,21.7433124 98.4354885,21.9508763 97.7648973,21.9508763 C96.5035472,21.9508763 95.6094256,21.1525535 95.449761,19.7634717 L100.431296,19.7634717 C100.479195,19.5718742 100.511128,19.2206122 100.511128,18.8693501 C100.511128,16.6819455 99.3934759,15.1491656 97.2699371,15.1491656 C95.4337945,15.1491656 93.6615178,16.7138784 93.6615178,19.2685115 C93.6615178,21.8550776 95.3539623,23.371891 97.5254004,23.371891 Z M98.9144822,18.5180881 L95.4337945,18.5180881 C95.5934591,17.2567379 96.391782,16.5701803 97.3178365,16.5701803 C98.3875891,16.5701803 98.9144822,17.3046373 98.9144822,18.5180881 Z M103.305258,17.9113627 C103.975849,17.9113627 104.486776,17.3844696 104.486776,16.665979 C104.486776,15.9474885 103.975849,15.4205954 103.305258,15.4205954 C102.634667,15.4205954 102.107774,15.9474885 102.107774,16.665979 C102.107774,17.3844696 102.634667,17.9113627 103.305258,17.9113627 Z M103.305258,23.371891 C103.975849,23.371891 104.486776,22.8449979 104.486776,22.1265073 C104.486776,21.4080168 103.975849,20.8811237 103.305258,20.8811237 C102.634667,20.8811237 102.107774,21.4080168 102.107774,22.1265073 C102.107774,22.8449979 102.634667,23.371891 103.305258,23.371891 Z" id="Thiswebsite:" fill="#000000" fill-rule="nonzero"></path>
            <path d="M40.2636981,90.0377358 L40.2636981,82.2700545 L42.9041509,82.2700545 L42.9041509,80.9009308 L36.0026499,80.9009308 L36.0026499,82.2700545 L38.6431027,82.2700545 L38.6431027,90.0377358 L40.2636981,90.0377358 Z M45.89387,90.0377358 L45.89387,85.2458029 C46.4666667,84.6869769 46.8578449,84.3935933 47.4585828,84.3935933 C48.2129979,84.3935933 48.5343229,84.8127128 48.5343229,85.9443354 L48.5343229,90.0377358 L50.1409476,90.0377358 L50.1409476,85.7347757 C50.1409476,84.0024151 49.4982977,83.010499 48.0313795,83.010499 C47.0953459,83.010499 46.4107841,83.4994717 45.8379874,84.044327 L45.89387,82.7171153 L45.89387,80.174457 L44.2872453,80.174457 L44.2872453,90.0377358 L45.89387,90.0377358 Z M52.8931656,81.9766709 C53.4659623,81.9766709 53.8571405,81.613434 53.8571405,81.054608 C53.8571405,80.5097526 53.4659623,80.1465157 52.8931656,80.1465157 C52.320369,80.1465157 51.9291908,80.5097526 51.9291908,81.054608 C51.9291908,81.613434 52.320369,81.9766709 52.8931656,81.9766709 Z M53.6894927,90.0377358 L53.6894927,83.1781468 L52.0828679,83.1781468 L52.0828679,90.0377358 L53.6894927,90.0377358 Z M57.6571572,90.2053836 C59.3895178,90.2053836 60.3255514,89.2553795 60.3255514,88.0818449 C60.3255514,86.7965451 59.2917233,86.3494843 58.3556897,86.000218 C57.6152453,85.7347757 56.9586247,85.5252159 56.9586247,84.9803606 C56.9586247,84.5472704 57.2939203,84.2259455 57.9784822,84.2259455 C58.5233375,84.2259455 58.9983396,84.4634465 59.4873124,84.8127128 L60.2277568,83.8347673 C59.6689308,83.4016771 58.9005451,83.010499 57.9365702,83.010499 C56.3997987,83.010499 55.4497945,83.8627086 55.4497945,85.0641845 C55.4497945,86.2097778 56.42774,86.7266918 57.3358323,87.0619874 C58.0623061,87.3414004 58.8027505,87.5928721 58.8027505,88.1656688 C58.8027505,88.6406709 58.4534843,88.9899371 57.7130398,88.9899371 C57.0145073,88.9899371 56.42774,88.6965535 55.8130314,88.2215514 L55.0586164,89.2553795 C55.7292075,89.8002348 56.7211237,90.2053836 57.6571572,90.2053836 Z M66.165283,92.7480419 L66.165283,90.5965618 L66.1233711,89.4509686 C66.6821971,89.9259706 67.282935,90.2053836 67.883673,90.2053836 C69.4064738,90.2053836 70.8175094,88.8502306 70.8175094,86.5031614 C70.8175094,84.3796226 69.8255933,83.010499 68.121174,83.010499 C67.3667589,83.010499 66.6263145,83.4156478 66.0535178,83.9046205 L65.9976352,83.9046205 L65.88587,83.1781468 L64.5586583,83.1781468 L64.5586583,92.7480419 L66.165283,92.7480419 Z M67.5483774,88.8781719 C67.1432285,88.8781719 66.6682264,88.7244948 66.165283,88.3053753 L66.165283,85.1060964 C66.6961677,84.5891824 67.1711698,84.3377107 67.6741132,84.3377107 C68.7079413,84.3377107 69.1550021,85.1480084 69.1550021,86.5171321 C69.1550021,88.0678742 68.4564696,88.8781719 67.5483774,88.8781719 Z M73.9329644,90.2053836 C74.7432621,90.2053836 75.4417945,89.8002348 76.0565031,89.2833208 L76.1123857,89.2833208 L76.2241509,90.0377358 L77.5513627,90.0377358 L77.5513627,85.9722767 C77.5513627,84.0582977 76.699153,83.010499 74.9947338,83.010499 C73.9050231,83.010499 72.9270776,83.4296184 72.1726625,83.9046205 L72.7594298,84.9803606 C73.3741384,84.6171237 74.0167883,84.3097694 74.6873795,84.3097694 C75.623413,84.3097694 75.9167966,84.924478 75.9447379,85.6509518 C73.1226667,85.9583061 71.9072201,86.7266918 71.9072201,88.1936101 C71.9072201,89.395086 72.7314885,90.2053836 73.9329644,90.2053836 Z M74.4498784,88.9480252 C73.8770818,88.9480252 73.4579623,88.6825828 73.4579623,88.0678742 C73.4579623,87.3833124 74.0726709,86.8943396 75.9447379,86.6568386 L75.9447379,88.1936101 C75.4278239,88.6686122 75.0087044,88.9480252 74.4498784,88.9480252 Z M81.8682935,93.0693669 C84.1035975,93.0693669 85.5286038,92.0075975 85.5286038,90.6524444 C85.5286038,89.4649392 84.6624235,88.9619958 83.0138868,88.9619958 L81.7984403,88.9619958 C80.9602013,88.9619958 80.6807883,88.7244948 80.6807883,88.3333166 C80.6807883,88.0259623 80.8065241,87.8583145 81.0160839,87.676696 C81.3234382,87.8024319 81.6587338,87.8583145 81.9521174,87.8583145 C83.405065,87.8583145 84.5506583,87.0480168 84.5506583,85.5252159 C84.5506583,85.0502138 84.3830105,84.6310943 84.1594801,84.365652 L85.4168386,84.365652 L85.4168386,83.1781468 L82.9580042,83.1781468 C82.6785912,83.0803522 82.3293249,83.010499 81.9521174,83.010499 C80.5131405,83.010499 79.2418113,83.8906499 79.2418113,85.4693333 C79.2418113,86.279631 79.6749015,86.9362516 80.1359329,87.2855178 L80.1359329,87.3414004 C79.7447547,87.6208134 79.3815178,88.0818449 79.3815178,88.6127296 C79.3815178,89.1715556 79.6469602,89.5347925 79.9962264,89.7583229 L79.9962264,89.8142055 C79.3675472,90.2053836 79.0182809,90.708327 79.0182809,91.2811237 C79.0182809,92.4825996 80.2337275,93.0693669 81.8682935,93.0693669 Z M81.9521174,86.8524277 C81.2815262,86.8524277 80.7506415,86.3494843 80.7506415,85.4693333 C80.7506415,84.603153 81.2815262,84.1141803 81.9521174,84.1141803 C82.6227086,84.1141803 83.1396226,84.6171237 83.1396226,85.4693333 C83.1396226,86.3494843 82.6087379,86.8524277 81.9521174,86.8524277 Z M82.1197652,92.0215681 C81.0300545,92.0215681 80.3594633,91.6583312 80.3594633,91.0436226 C80.3594633,90.7222977 80.5271111,90.4149434 80.890348,90.1355304 C81.1557904,90.2053836 81.449174,90.2333249 81.8263816,90.2333249 L82.7624151,90.2333249 C83.5447715,90.2333249 83.9778616,90.3870021 83.9778616,90.9178868 C83.9778616,91.5046541 83.2234465,92.0215681 82.1197652,92.0215681 Z M89.4543564,90.2053836 C90.3205367,90.2053836 91.144805,89.8980294 91.8014256,89.4649392 L91.2565702,88.4590524 C90.7536268,88.7803774 90.2506834,88.9619958 89.6639161,88.9619958 C88.5602348,88.9619958 87.7778784,88.2634633 87.6381719,87.0480168 L91.9970147,87.0480168 C92.0389266,86.880369 92.0668679,86.5730147 92.0668679,86.2656604 C92.0668679,84.3516813 91.0889224,83.010499 89.230826,83.010499 C87.6242013,83.010499 86.0734591,84.3796226 86.0734591,86.6149266 C86.0734591,88.8781719 87.554348,90.2053836 89.4543564,90.2053836 Z M90.6698029,85.9583061 L87.6242013,85.9583061 C87.7639078,84.8546247 88.4624403,84.2538868 89.2727379,84.2538868 C90.2087715,84.2538868 90.6698029,84.8965367 90.6698029,85.9583061 Z M94.5117317,85.4274214 C95.098499,85.4274214 95.5455597,84.9663899 95.5455597,84.3377107 C95.5455597,83.7090314 95.098499,83.248 94.5117317,83.248 C93.9249644,83.248 93.4639329,83.7090314 93.4639329,84.3377107 C93.4639329,84.9663899 93.9249644,85.4274214 94.5117317,85.4274214 Z M94.5117317,90.2053836 C95.098499,90.2053836 95.5455597,89.7443522 95.5455597,89.115673 C95.5455597,88.4869937 95.098499,88.0259623 94.5117317,88.0259623 C93.9249644,88.0259623 93.4639329,88.4869937 93.4639329,89.115673 C93.4639329,89.7443522 93.9249644,90.2053836 94.5117317,90.2053836 Z" id="Thispage:" fill="#000000" fill-rule="nonzero"></path>
            <polygon id="/" fill="#585858" fill-rule="nonzero" points="36.6173585 112.231111 40.347522 100.076646 39.509283 100.076646 35.7791195 112.231111"></polygon>
            <rect id="Rectangle" fill="#F7F7F7" x="15.6813417" y="59.1090147" width="3.99161426" height="68.8553459"></rect>
        </g>
    </g>
</svg>