<?xml version="1.0" encoding="UTF-8"?>
<svg width="20px" height="20px" viewBox="0 0 20 20" version="1.1" xmlns="http://www.w3.org/2000/svg" xmlns:xlink="http://www.w3.org/1999/xlink">
    <title>logo-abp</title>
    <g id="Bubble-UI" stroke="none" stroke-width="1" fill="none" fill-rule="evenodd">
        <g id="logo-abp">
            <polygon id="Fill-1" fill="#D8D9D9" points="5.56939399 5.8163522e-05 3.83194968e-05 5.63571569 3.83194968e-05 13.6058631 5.56939399 19.2415206 13.4455834 19.2415206 19.0151306 13.6058631 19.0151306 5.63571569 13.4455834 5.8163522e-05"></polygon>
            <polygon id="Fill-2" fill="#FFFFFF" points="5.62147019 0.127087296 0.125496352 5.68829551 0.125496352 13.553167 5.62147019 19.1143752 13.3938137 19.1143752 18.889596 13.553167 18.889596 5.68829551 13.3938137 0.127087296"></polygon>
            <polygon id="Fill-3" fill="#CA0000" points="5.98391515 18.2288356 1.00065618 13.1862521 1.00065618 6.0552104 5.98391515 1.01262692 13.0312538 1.01262692 18.0143212 6.0552104 18.0143212 13.1862521 13.0312538 18.2288356"></polygon>
            <path d="M4.86017674,10.1057956 L4.72701649,9.48538472 C4.64405478,9.14784242 4.56415863,8.78936124 4.48732804,8.41013508 C4.41030585,8.03110279 4.33328366,7.665642 4.25645307,7.31414044 L4.22100754,7.31414044 C4.14992487,7.67262162 4.07730942,8.03963344 4.00354439,8.41536979 C3.92939617,8.79110615 3.85103279,9.14784242 3.76826268,9.48538472 L3.62609735,10.1057956 L4.86017674,10.1057956 Z M5.12649725,11.2948519 L3.35977685,11.2948519 L3.00474671,12.8974508 L1.67314419,12.8974508 L3.48412361,6.15610472 L5.05541458,6.15610472 L6.8665856,12.8974508 L5.48152739,12.8974508 L5.12649725,11.2948519 Z" id="Fill-4" fill="#FFFFFF"></path>
            <path d="M9.71623414,11.7187476 C10.4322339,11.7187476 10.7903296,11.412032 10.7903296,10.7986007 C10.7903296,10.5021606 10.70162,10.2867617 10.5240091,10.152404 C10.3463983,10.0178524 10.0770122,9.95077045 9.71623414,9.95077045 L8.97935022,9.95077045 L8.97935022,11.7187476 L9.71623414,11.7187476 Z M9.59188738,8.87532693 C9.91147198,8.87532693 10.1436881,8.80145925 10.2887274,8.65314227 C10.4337667,8.50501917 10.5063822,8.30338563 10.5063822,8.04824164 C10.5063822,7.79329154 10.4322339,7.61065808 10.2843207,7.50034127 C10.1364074,7.39002445 9.90840642,7.33476911 9.60070086,7.33476911 L8.97935022,7.33476911 L8.97935022,8.87532693 L9.59188738,8.87532693 Z M7.67437975,6.15618227 L9.65396496,6.15618227 C9.9559226,6.15618227 10.2354633,6.1819681 10.4929703,6.23373364 C10.7504774,6.28549917 10.9752212,6.3768159 11.1677767,6.50768382 C11.359949,6.63874563 11.5109278,6.81110353 11.6205215,7.02456366 C11.7299237,7.23841154 11.7847206,7.50732089 11.7847206,7.83109783 C11.7847206,7.98290462 11.7653692,8.13451753 11.7270497,8.28613045 C11.688347,8.43774336 11.6306762,8.57908072 11.5538456,8.70994865 C11.4768234,8.84101045 11.3762347,8.95811301 11.2520796,9.0614502 C11.1277328,9.16498127 10.9826935,9.24078772 10.8169617,9.28906345 L10.8169617,9.33035955 C11.2311955,9.41993137 11.5434994,9.59248315 11.7536818,9.84723938 C11.9636726,10.1023834 12.0686681,10.4573747 12.0686681,10.9122135 C12.0686681,11.2569293 12.0109972,11.5533694 11.8956555,11.8015337 C11.7803138,12.0496981 11.6205215,12.2548214 11.4162786,12.4167099 C11.2120357,12.5787923 10.9736884,12.6993846 10.70162,12.778487 C10.42936,12.8579772 10.1364074,12.8975284 9.82276234,12.8975284 L7.67437975,12.8975284 L7.67437975,6.15618227 Z" id="Fill-6" fill="#FFFFFF"></path>
            <path d="M14.9983469,9.40271497 C15.7085987,9.40271497 16.0636289,9.04442767 16.0636289,8.32746532 C16.0636289,7.97596377 15.9733865,7.72779941 15.7929016,7.58297224 C15.6122252,7.43814507 15.3474375,7.36582843 14.9983469,7.36582843 L14.270468,7.36582843 L14.270468,9.40271497 L14.9983469,9.40271497 Z M12.965306,6.15622105 L15.078243,6.15622105 C15.3918881,6.15622105 15.6863734,6.19228243 15.9615074,6.26479296 C16.236833,6.3371096 16.4765215,6.45770197 16.6805728,6.62657006 C16.8848157,6.79563203 17.0459492,7.01956159 17.164548,7.2987465 C17.2827637,7.57773753 17.3419673,7.92070843 17.3419673,8.32746532 C17.3419673,8.72026298 17.2812309,9.06148897 17.1599497,9.35094943 C17.0386685,9.64060377 16.8744694,9.8782987 16.6673526,10.064422 C16.4600441,10.2505452 16.2203556,10.3885867 15.9482872,10.4779646 C15.6758356,10.5677303 15.3859486,10.6125162 15.078243,10.6125162 L14.270468,10.6125162 L14.270468,12.8973732 L12.965306,12.8973732 L12.965306,6.15622105 Z" id="Fill-8" fill="#FFFFFF"></path>
        </g>
    </g>
</svg>