<?xml version="1.0" encoding="UTF-8"?>
<svg width="16px" height="17px" viewBox="0 0 16 17" version="1.1" xmlns="http://www.w3.org/2000/svg" xmlns:xlink="http://www.w3.org/1999/xlink">
    <!-- Generator: Sketch 42 (36781) - http://www.bohemiancoding.com/sketch -->
    <title>block</title>
    <desc>Created with Sketch.</desc>
    <defs></defs>
    <g id="Symbols" stroke="none" stroke-width="1" fill="none" fill-rule="evenodd">
        <g id="icons/ads" transform="translate(0.000000, 1.000000)" fill="#808080">
            <path d="M8,15.3846154 C6.89743015,15.3846154 5.85897846,15.1762841 4.88461538,14.7596155 C3.91025231,14.3429467 3.06090092,13.7724396 2.33653858,13.0480768 C1.61217575,12.3237145 1.04166868,11.4743631 0.624999877,10.5 C0.208331249,9.52563692 0,8.48718523 0,7.38461538 C0,6.28204554 0.208331249,5.24359385 0.624999877,4.26923077 C1.04166868,3.29486769 1.61217575,2.44551631 2.33653858,1.72115446 C3.06090092,0.996790154 3.91025231,0.426284308 4.88461538,0.00961476923 C5.85897846,-0.407052308 6.89743015,-0.615384615 8,-0.615384615 C9.10256985,-0.615384615 10.1410215,-0.407052308 11.1153846,0.00961476923 C12.0897477,0.426284308 12.9390991,0.996790154 13.6634609,1.72115446 C14.3878252,2.44551631 14.9583311,3.29486769 15.3750006,4.26923077 C15.7916677,5.24359385 16,6.28204554 16,7.38461538 C16,8.48718523 15.7916677,9.52563692 15.3750006,10.5 C14.9583311,11.4743631 14.3878252,12.3237145 13.6634609,13.0480768 C12.9390991,13.7724396 12.0897477,14.3429467 11.1153846,14.7596155 C10.1410215,15.1762841 9.10256985,15.3846154 8,15.3846154 Z M8,13.5384615 C8.67949046,13.5384615 9.32691938,13.4326934 9.94230646,13.221154 C10.557696,13.0096143 11.121792,12.7179495 11.6346142,12.3461538 L3.03846154,3.75000123 C2.66666585,4.26282338 2.37500111,4.82691938 2.16346142,5.44230892 C1.95192197,6.057696 1.84615385,6.70512492 1.84615385,7.38461538 C1.84615385,8.23077415 2.00640862,9.02884185 2.32692308,9.77884554 C2.64743631,10.5288492 3.08653538,11.1826905 3.64423138,11.740384 C4.20192492,12.29808 4.85576615,12.7371791 5.60576985,13.0576923 C6.35577354,13.3782068 7.15384123,13.5384615 8,13.5384615 Z M8,1.23076923 C7.32050954,1.23076923 6.66987569,1.33653662 6.04807631,1.54807631 C5.42627938,1.759616 4.858976,2.05769108 4.34615385,2.44230892 L12.9423065,11.0384615 C13.3269243,10.5256394 13.6249994,9.958336 13.8365391,9.33653908 C14.0480788,8.71473969 14.1538462,8.06410585 14.1538462,7.38461538 C14.1538462,6.53845662 13.9935902,5.74038892 13.6730782,4.99038523 C13.3525637,4.24038154 12.9134646,3.58654031 12.3557686,3.02884677 C11.7980751,2.47115077 11.1442338,2.03205169 10.3942302,1.71153723 C9.64422646,1.39102523 8.84615877,1.23076923 8,1.23076923 Z" id="block"></path>
        </g>
    </g>
</svg>