<?xml version="1.0" encoding="UTF-8"?>
<svg width="16px" height="16px" viewBox="0 0 16 16" version="1.1" xmlns="http://www.w3.org/2000/svg" xmlns:xlink="http://www.w3.org/1999/xlink">
    <!-- Generator: Sketch 42 (36781) - http://www.bohemiancoding.com/sketch -->
    <title>checkmark</title>
    <desc>Created with Sketch.</desc>
    <defs></defs>
    <g id="Symbols" stroke="none" stroke-width="1" fill="none" fill-rule="evenodd">
        <g id="icons/acceptableads" fill="#808080">
            <path d="M7.98440546,0 C5.78036622,0 3.89864346,0.781242 2.33918129,2.34375 C0.779719311,3.906258 0,5.791656 0,8 C0,10.208344 0.779719311,12.093742 2.33918129,13.65625 C3.89864346,15.2187578 5.78036622,16 7.98440546,16 C10.1884447,16 12.0701675,15.2187578 13.6296296,13.65625 C15.1890918,12.093742 15.9688109,10.208344 15.9688109,8 C15.9688109,5.791656 15.1890918,3.906258 13.6296296,2.34375 C12.0701675,0.781242 10.1884447,0 7.98440546,0 Z M11.6959064,5.78125 L7.85964912,11.65625 C7.85964912,11.65625 7.85445127,11.666666 7.84405558,11.6875 C7.83365789,11.708334 7.81806434,11.729166 7.79727096,11.75 C7.79727096,11.75 7.76608187,11.770834 7.7037037,11.8125 C7.7037037,11.8125 7.69330801,11.822916 7.67251462,11.84375 C7.61013645,11.885416 7.53736259,11.916666 7.45419103,11.9375 L7.39181287,11.9375 C7.35022809,11.958334 7.29824561,11.958334 7.23586745,11.9375 L7.11111111,11.9375 C7.09031772,11.916666 7.04873294,11.895834 6.98635478,11.875 C6.98635478,11.875 6.97595908,11.869792 6.95516569,11.859376 C6.9343723,11.848958 6.91877876,11.84375 6.90838306,11.84375 C6.89798537,11.84375 6.88758968,11.838542 6.87719198,11.828124 C6.86679629,11.817708 6.85640059,11.807292 6.8460049,11.796876 C6.8356072,11.786458 6.83040936,11.78125 6.83040936,11.78125 L4.58479532,9.71875 C4.46003899,9.59375 4.39246297,9.432292 4.38206528,9.234376 C4.37166958,9.036458 4.4288499,8.864584 4.55360624,8.71875 C4.67836257,8.572916 4.83950584,8.5 5.03703804,8.5 C5.23456823,8.5 5.4061072,8.5625 5.55165692,8.6875 L7.14230019,10.1875 L10.5107212,5.03125 C10.6354776,4.864582 10.791423,4.760416 10.9785575,4.71875 C11.165692,4.677084 11.337231,4.708332 11.4931764,4.8125 C11.6491238,4.916668 11.7478889,5.0625 11.7894737,5.25 C11.8310585,5.4375 11.7998714,5.614582 11.6959064,5.78125 Z" id="checkmark"></path>
        </g>
    </g>
</svg>