<?xml version="1.0" encoding="UTF-8"?>
<svg width="8px" height="16px" viewBox="0 0 8 16" version="1.1" xmlns="http://www.w3.org/2000/svg" xmlns:xlink="http://www.w3.org/1999/xlink">
    <!-- Generator: Sketch 42 (36781) - http://www.bohemiancoding.com/sketch -->
    <title>information</title>
    <desc>Created with Sketch.</desc>
    <defs></defs>
    <g id="Page-1" stroke="none" stroke-width="1" fill="none" fill-rule="evenodd">
        <g id="03---Extension-UI---Turned-off-(Session)" transform="translate(-78.000000, -229.000000)" fill="#E6E6E6">
            <g id="button" transform="translate(71.000000, 218.000000)">
                <path d="M10.1219528,26.1902359 C9.73170576,26.1902359 9.42683161,26.019332 9.20731785,25.6775181 C8.9878041,25.3357043 9.01625756,24.6276755 9.29268137,23.55341 L10.2195138,19.7934885 C10.3008125,19.4842322 10.3455282,19.2644982 10.3536578,19.1342836 C10.3617873,19.0040689 10.3170747,18.9389631 10.2195138,18.9389631 C10.1056905,18.9389631 9.83739941,19.0244135 9.41463415,19.1953204 C8.99186888,19.3662274 8.62601678,19.5574758 8.31707161,19.769075 L7.92682771,19.109867 C8.90244371,18.2960308 9.88210888,17.6612456 10.8658544,17.2054958 C11.8495969,16.749743 12.5772332,16.5218743 13.048782,16.5218743 C13.4552851,16.5218743 13.6991875,16.7416051 13.7804862,17.1810792 C13.8617881,17.6205533 13.7967485,18.2065084 13.5853643,18.9389631 L12.5365854,22.9186154 C12.4552835,23.2604293 12.42683,23.5005078 12.4512187,23.6388603 C12.4756105,23.7772128 12.5365854,23.8463906 12.6341463,23.8463906 C12.7479696,23.8463906 12.9756066,23.7731439 13.3170732,23.6266536 C13.6585397,23.4801633 14.0243887,23.2604293 14.4146357,22.9674487 L14.8780488,23.55341 C13.9349541,24.4974608 13.0081342,25.1729383 12.097561,25.5798579 C11.1869877,25.9867776 10.5284558,26.1902359 10.1219528,26.1902359 Z M13.1219512,11.3214662 C13.7073202,11.3214662 14.1056905,11.4679565 14.3170747,11.7609372 C14.5284558,12.0539178 14.6341463,12.3957255 14.6341463,12.7863694 C14.6341463,13.2583949 14.4512219,13.685656 14.0853666,14.068159 C13.7195114,14.4506652 13.2032562,14.6419136 12.5365854,14.6419136 C11.9837378,14.6419136 11.5731731,14.511702 11.3048788,14.2512727 C11.0365846,13.9908434 10.9105701,13.6327601 10.9268293,13.1770103 C10.9268293,12.7863663 11.1016242,12.3794529 11.4512203,11.9562576 C11.8008133,11.5330623 12.3577194,11.3214662 13.1219512,11.3214662 Z" id="information"></path>
            </g>
        </g>
    </g>
</svg>