<?xml version="1.0" encoding="UTF-8"?>
<svg width="162px" height="24px" viewBox="0 0 162 24" version="1.1" xmlns="http://www.w3.org/2000/svg" xmlns:xlink="http://www.w3.org/1999/xlink">
    <!-- Generator: Sketch 42 (36781) - http://www.bohemiancoding.com/sketch -->
    <title>logo</title>
    <desc>Created with Sketch.</desc>
    <defs></defs>
    <g id="Symbols" stroke="none" stroke-width="1" fill="none" fill-rule="evenodd">
        <g id="logo">
            <path d="M40.8036547,14.448895 L40.0579899,12.1008287 C39.7693441,11.2398668 39.4967382,10.3828312 39.2401641,9.52969613 C38.98359,8.67656111 38.7270197,7.80387186 38.4704456,6.91160221 L38.3742308,6.91160221 C38.1336926,7.80387186 37.8851402,8.67656111 37.6285661,9.52969613 C37.371992,10.3828312 37.0993861,11.2398668 36.8107403,12.1008287 L36.0650755,14.448895 L40.8036547,14.448895 Z M41.3087824,16.0220994 L35.5599478,16.0220994 L34.0445646,20.718232 L32,20.718232 L37.3399217,5.31491713 L39.6009696,5.31491713 L44.9408913,20.718232 L42.8001119,20.718232 L41.3087824,16.0220994 Z M46.1435764,15.0359116 C46.1435764,14.1123342 46.2838882,13.278779 46.5645161,12.535221 C46.845144,11.7916629 47.2179727,11.1616048 47.6830132,10.6450276 C48.1480538,10.1284505 48.6852477,9.72928318 49.2946112,9.44751381 C49.9039747,9.16574445 50.5454003,9.02486188 51.2189073,9.02486188 C51.8924143,9.02486188 52.4777152,9.14226402 52.9748275,9.37707182 C53.4719398,9.61187963 53.9770625,9.93277881 54.4902107,10.339779 L54.3939959,8.39088398 L54.3939959,4 L56.3904531,4 L56.3904531,20.718232 L54.7548014,20.718232 L54.5864255,19.3798343 L54.5142644,19.3798343 C54.0492239,19.8181422 53.5160388,20.1977424 52.9146933,20.5186464 C52.3133477,20.8395504 51.6679132,21 50.9783703,21 C49.5030693,21 48.3284586,20.4834306 47.4545031,19.4502762 C46.5805476,18.4171219 46.1435764,16.9456817 46.1435764,15.0359116 Z M48.188141,15.0124309 C48.188141,16.3899701 48.4687647,17.4622429 49.0300205,18.2292818 C49.5912763,18.9963206 50.3850406,19.3798343 51.4113369,19.3798343 C51.9565569,19.3798343 52.4696974,19.2506919 52.9507738,18.9924033 C53.4318503,18.7341147 53.9129195,18.3388609 54.3939959,17.8066298 L54.3939959,11.8425414 C53.8968836,11.4042335 53.4198233,11.0950746 52.9628007,10.9150552 C52.5057781,10.7350359 52.0367356,10.6450276 51.5556591,10.6450276 C51.0906186,10.6450276 50.6536474,10.7506896 50.2447324,10.9620166 C49.8358175,11.1733436 49.4790245,11.4707624 49.1743427,11.8542818 C48.869661,12.2378012 48.6291264,12.6956695 48.4527317,13.2279006 C48.276337,13.7601316 48.188141,14.3549691 48.188141,15.0124309 Z M60.3352601,4 L62.3076636,4 L62.3076636,8.55524862 L62.2595562,10.621547 C62.7887403,10.1675852 63.3660234,9.78798495 63.9914227,9.48273481 C64.6168221,9.17748466 65.2582477,9.02486188 65.9157188,9.02486188 C66.6694052,9.02486188 67.3348843,9.16183104 67.912176,9.43577348 C68.4894677,9.70971592 68.9745459,10.1010564 69.3674249,10.6098066 C69.760304,11.1185569 70.0569634,11.729048 70.2574119,12.4412983 C70.4578604,13.1535487 70.5580832,13.9479698 70.5580832,14.8245856 C70.5580832,15.7951246 70.4217802,16.6639004 70.1491702,17.4309392 C69.8765603,18.1979781 69.5077405,18.8476032 69.0427,19.3798343 C68.5776594,19.9120653 68.0404655,20.315146 67.431102,20.5890884 C66.8217385,20.8630308 66.1803129,21 65.5068059,21 C64.9615859,21 64.3963296,20.8786845 63.81102,20.6360497 C63.2257103,20.393415 62.6764896,20.045122 62.1633414,19.5911602 L62.0911803,19.5911602 L61.9228044,20.718232 L60.3352601,20.718232 L60.3352601,4 Z M62.3076636,18.1823204 C62.8208118,18.6206283 63.3299434,18.9297873 63.8350737,19.1098066 C64.3402039,19.2898259 64.7851929,19.3798343 65.1700541,19.3798343 C65.6511305,19.3798343 66.0961195,19.2741723 66.5050345,19.0628453 C66.9139495,18.8515183 67.2667336,18.5540995 67.5633974,18.1705801 C67.8600612,17.7870607 68.0925779,17.3135387 68.2609547,16.75 C68.4293314,16.1864613 68.5135186,15.5524897 68.5135186,14.8480663 C68.5135186,14.2219122 68.4573938,13.6505551 68.3451426,13.1339779 C68.2328915,12.6174007 68.0524905,12.175186 67.8039344,11.8073204 C67.5553782,11.4394549 67.2346654,11.1537763 66.8417863,10.9502762 C66.4489072,10.7467761 65.9798647,10.6450276 65.4346448,10.6450276 C64.4885278,10.6450276 63.4462112,11.161597 62.3076636,12.1947514 L62.3076636,18.1823204 Z M73.6850643,4 L75.6574678,4 L75.6574678,18.558011 C75.6574678,18.8710881 75.7135926,19.0902388 75.8258437,19.2154696 C75.9380949,19.3407004 76.06638,19.4033149 76.210703,19.4033149 L76.3911057,19.4033149 C76.4472313,19.4033149 76.5314184,19.3876613 76.6436696,19.3563536 L76.9082603,20.8121547 C76.7799733,20.8747701 76.6276347,20.921731 76.45124,20.9530387 C76.2748453,20.9843464 76.0503463,21 75.7777363,21 C75.0240499,21 74.486856,20.7808493 74.1661384,20.3425414 C73.8454207,19.9042335 73.6850643,19.2624352 73.6850643,18.4171271 L73.6850643,4 Z M78.9528249,15.0359116 C78.9528249,14.0810265 79.1011546,13.2318177 79.3978184,12.4882597 C79.6944822,11.7447016 80.0913643,11.1146435 80.5884766,10.5980663 C81.0855889,10.0814891 81.6588631,9.69014866 82.3083162,9.42403315 C82.9577694,9.15791764 83.6432931,9.02486188 84.3649077,9.02486188 C85.0865223,9.02486188 85.772046,9.15791764 86.4214992,9.42403315 C87.0709523,9.69014866 87.6442265,10.0814891 88.1413388,10.5980663 C88.6384511,11.1146435 89.0353332,11.7447016 89.331997,12.4882597 C89.6286608,13.2318177 89.7769905,14.0810265 89.7769905,15.0359116 C89.7769905,15.9751428 89.6286608,16.8165248 89.331997,17.5600829 C89.0353332,18.3036409 88.6384511,18.9297857 88.1413388,19.4385359 C87.6442265,19.9472862 87.0709523,20.3347132 86.4214992,20.6008287 C85.772046,20.8669442 85.0865223,21 84.3649077,21 C83.6432931,21 82.9577694,20.8669442 82.3083162,20.6008287 C81.6588631,20.3347132 81.0855889,19.9472862 80.5884766,19.4385359 C80.0913643,18.9297857 79.6944822,18.3036409 79.3978184,17.5600829 C79.1011546,16.8165248 78.9528249,15.9751428 78.9528249,15.0359116 Z M80.9973895,15.0359116 C80.9973895,15.6933735 81.0775677,16.288211 81.2379265,16.820442 C81.3982853,17.352673 81.6267932,17.8105414 81.923457,18.1940608 C82.2201208,18.5775802 82.5769138,18.8749989 82.9938467,19.086326 C83.4107796,19.297653 83.8677954,19.4033149 84.3649077,19.4033149 C84.86202,19.4033149 85.3190358,19.297653 85.7359687,19.086326 C86.1529016,18.8749989 86.5096946,18.5775802 86.8063584,18.1940608 C87.1030222,17.8105414 87.3315301,17.352673 87.4918889,16.820442 C87.6522477,16.288211 87.7324259,15.6933735 87.7324259,15.0359116 C87.7324259,14.3784498 87.6522477,13.7796988 87.4918889,13.2396409 C87.3315301,12.6995829 87.1030222,12.2338878 86.8063584,11.8425414 C86.5096946,11.4511951 86.1529016,11.1498629 85.7359687,10.9385359 C85.3190358,10.7272089 84.86202,10.621547 84.3649077,10.621547 C83.8677954,10.621547 83.4107796,10.7272089 82.9938467,10.9385359 C82.5769138,11.1498629 82.2201208,11.4511951 81.923457,11.8425414 C81.6267932,12.2338878 81.3982853,12.6995829 81.2379265,13.2396409 C81.0775677,13.7796988 80.9973895,14.3784498 80.9973895,15.0359116 Z M91.989931,15.0359116 C91.989931,14.0810265 92.1422696,13.2318177 92.4469513,12.4882597 C92.7516331,11.7447016 93.1605419,11.1146435 93.6736901,10.5980663 C94.1868383,10.0814891 94.7841659,9.69014866 95.4656908,9.42403315 C96.1472158,9.15791764 96.8648107,9.02486188 97.6184971,9.02486188 C98.3882194,9.02486188 99.0496896,9.16183104 99.6029275,9.43577348 C100.156165,9.70971592 100.633226,10.0267017 101.034123,10.3867403 L100.047921,11.6312155 C99.6951316,11.3337923 99.3303207,11.0911612 98.9534775,10.9033149 C98.5766343,10.7154687 98.1556988,10.621547 97.6906582,10.621547 C97.1614741,10.621547 96.6723871,10.7272089 96.2233824,10.9385359 C95.7743778,11.1498629 95.3895224,11.4511951 95.0688048,11.8425414 C94.7480872,12.2338878 94.4955258,12.6995829 94.3111132,13.2396409 C94.1267006,13.7796988 94.0344956,14.3784498 94.0344956,15.0359116 C94.0344956,15.6933735 94.1226916,16.288211 94.2990863,16.820442 C94.475481,17.352673 94.7200245,17.8105414 95.0327242,18.1940608 C95.3454239,18.5775802 95.7262704,18.8749989 96.175275,19.086326 C96.6242797,19.297653 97.1133667,19.4033149 97.6425508,19.4033149 C98.2038066,19.4033149 98.7129382,19.2898262 99.1699608,19.0628453 C99.6269835,18.8358644 100.031883,18.5658395 100.384673,18.2527624 L101.27466,19.5207182 C100.745476,19.97468 100.156166,20.3347132 99.5067127,20.6008287 C98.8572595,20.8669442 98.1797537,21 97.4741749,21 C96.7044526,21 95.9828488,20.8669442 95.3093418,20.6008287 C94.6358348,20.3347132 94.0545428,19.9472862 93.5654484,19.4385359 C93.0763541,18.9297857 92.6914987,18.3036409 92.4108708,17.5600829 C92.1302429,16.8165248 91.989931,15.9751428 91.989931,15.0359116 Z M103.824352,4 L105.772702,4 L105.772702,15.3176796 L105.844863,15.3176796 L110.823979,9.30662983 L113.012866,9.30662983 L109.092113,13.8853591 L113.542047,20.718232 L111.377214,20.718232 L107.961589,15.2237569 L105.772702,17.7127072 L105.772702,20.718232 L103.824352,20.718232 L103.824352,4 Z M120.782211,5.31491713 L125.617005,5.31491713 C126.482943,5.31491713 127.276707,5.39318522 127.998322,5.54972376 C128.719936,5.70626229 129.3333,5.9606336 129.83843,6.3128453 C130.34356,6.66505701 130.736433,7.13075217 131.017061,7.70994475 C131.297689,8.28913733 131.438001,9.00137699 131.438001,9.84668508 C131.438001,10.6606855 131.297689,11.3650983 131.017061,11.9599448 C130.736433,12.5547912 130.339551,13.0478802 129.826403,13.4392265 C129.313255,13.8305729 128.699892,14.1240782 127.986295,14.3197514 C127.272698,14.5154246 126.482943,14.6132597 125.617005,14.6132597 L122.778669,14.6132597 L122.778669,20.718232 L120.782211,20.718232 L120.782211,5.31491713 Z M125.376468,13.0165746 C126.755554,13.0165746 127.777826,12.7622033 128.443315,12.253453 C129.108804,11.7447028 129.441544,10.9424548 129.441544,9.84668508 C129.441544,8.73526148 129.104795,7.96432075 128.431288,7.53383978 C127.757781,7.10335881 126.739518,6.88812155 125.376468,6.88812155 L122.778669,6.88812155 L122.778669,13.0165746 L125.376468,13.0165746 Z M134.444714,4 L136.417117,4 L136.417117,18.558011 C136.417117,18.8710881 136.473242,19.0902388 136.585493,19.2154696 C136.697744,19.3407004 136.826029,19.4033149 136.970352,19.4033149 L137.150755,19.4033149 C137.206881,19.4033149 137.291068,19.3876613 137.403319,19.3563536 L137.66791,20.8121547 C137.539623,20.8747701 137.387284,20.921731 137.210889,20.9530387 C137.034495,20.9843464 136.809996,21 136.537386,21 C135.783699,21 135.246505,20.7808493 134.925788,20.3425414 C134.60507,19.9042335 134.444714,19.2624352 134.444714,18.4171271 L134.444714,4 Z M140.410032,9.30662983 L142.406489,9.30662983 L142.406489,16.2803867 C142.406489,17.3605026 142.578872,18.1392702 142.923643,18.6167127 C143.268415,19.0941552 143.825653,19.3328729 144.595376,19.3328729 C145.204739,19.3328729 145.741933,19.1802501 146.206974,18.875 C146.672014,18.5697499 147.185155,18.0805743 147.746411,17.4074586 L147.746411,9.30662983 L149.718814,9.30662983 L149.718814,20.718232 L148.083162,20.718232 L147.914787,18.9337017 L147.842625,18.9337017 C147.297405,19.5598558 146.724131,20.0607716 146.122786,20.4364641 C145.52144,20.8121566 144.811863,21 143.994033,21 C142.743234,21 141.833212,20.6243131 141.263938,19.8729282 C140.694664,19.1215432 140.410032,18.0101363 140.410032,16.538674 L140.410032,9.30662983 Z M153.350923,18.1353591 C153.864071,18.5423593 154.389238,18.8710853 154.92644,19.121547 C155.463642,19.3720086 156.085024,19.4972376 156.790602,19.4972376 C157.560325,19.4972376 158.137608,19.3250478 158.522469,18.980663 C158.90733,18.6362782 159.099758,18.2136305 159.099758,17.7127072 C159.099758,17.415284 159.019579,17.1569993 158.859221,16.9378453 C158.698862,16.7186914 158.494407,16.5269345 158.245851,16.3625691 C157.997295,16.1982036 157.712662,16.0534076 157.391945,15.9281768 L156.429797,15.5524862 C156.012864,15.4116015 155.595937,15.2511519 155.179004,15.0711326 C154.762071,14.8911133 154.389243,14.6719626 154.060507,14.413674 C153.731772,14.1553854 153.463175,13.8540533 153.254708,13.5096685 C153.046242,13.1652837 152.94201,12.7504628 152.94201,12.2651934 C152.94201,11.8112316 153.034215,11.3846705 153.218628,10.9854972 C153.40304,10.586324 153.667628,10.2419444 154.0124,9.95234807 C154.357171,9.66275177 154.778107,9.4357743 155.275219,9.27140884 C155.772331,9.10704338 156.333579,9.02486188 156.958978,9.02486188 C157.696629,9.02486188 158.374135,9.15009083 158.991516,9.40055249 C159.608897,9.65101414 160.142082,9.95625971 160.591087,10.3162983 L159.652993,11.5372928 C159.252096,11.2398696 158.835169,10.9972385 158.4022,10.8093923 C157.969231,10.621546 157.49618,10.5276243 156.983032,10.5276243 C156.245381,10.5276243 155.704178,10.6919873 155.359407,11.0207182 C155.014636,11.3494492 154.842252,11.7329628 154.842252,12.1712707 C154.842252,12.4373862 154.914413,12.6682771 155.058736,12.8639503 C155.203059,13.0596234 155.395486,13.2318133 155.636025,13.3805249 C155.876563,13.5292365 156.153178,13.6622922 156.465877,13.7796961 C156.778577,13.8971 157.103299,14.0184156 157.440052,14.1436464 C157.856985,14.3001849 158.277921,14.4645479 158.702872,14.6367403 C159.127822,14.8089327 159.508669,15.02417 159.845422,15.2824586 C160.182176,15.5407471 160.458791,15.8577329 160.675275,16.2334254 C160.891759,16.6091179 161,17.0630728 161,17.5953039 C161,18.0649195 160.907795,18.5032208 160.723382,18.910221 C160.53897,19.3172212 160.266364,19.6772544 159.905557,19.9903315 C159.544749,20.3034086 159.095751,20.5499531 158.558549,20.7299724 C158.021347,20.9099917 157.407984,21 156.718441,21 C155.884575,21 155.090811,20.8512906 154.337125,20.5538674 C153.583438,20.2564442 152.925977,19.8807573 152.364721,19.4267956 L153.350923,18.1353591 Z" id="Adblock-Plus" fill="#000000"></path>
            <g id="logo-abp">
                <polygon id="Fill-1" fill="#D8D9D9" points="6.976368 7.2e-05 4.79999999e-05 6.976392 4.79999999e-05 16.842552 6.976368 23.818872 16.842288 23.818872 23.818848 16.842552 23.818848 6.976392 16.842288 7.2e-05"></polygon>
                <polygon id="Fill-2" fill="#FFFFFF" points="7.0416 0.15732 0.1572 7.04148 0.1572 16.77732 7.0416 23.66148 16.77744 23.66148 23.6616 16.77732 23.6616 7.04148 16.77744 0.15732"></polygon>
                <polygon id="Fill-3" fill="#CA0000" points="7.495608 22.56528 1.253448 16.32312 1.253448 7.49568 7.495608 1.25352 16.323288 1.25352 22.565208 7.49568 22.565208 16.32312 16.323288 22.56528"></polygon>
                <path d="M6.087984,12.509856 L5.921184,11.741856 C5.817264,11.324016 5.717184,10.880256 5.620944,10.410816 C5.524464,9.941616 5.427984,9.489216 5.331744,9.054096 L5.287344,9.054096 C5.198304,9.497856 5.107344,9.952176 5.014944,10.417296 C4.922064,10.882416 4.823904,11.324016 4.720224,11.741856 L4.542144,12.509856 L6.087984,12.509856 Z M6.421584,13.981776 L4.208544,13.981776 L3.763824,15.965616 L2.095824,15.965616 L4.364304,7.620576 L6.332544,7.620576 L8.601264,15.965616 L6.866304,15.965616 L6.421584,13.981776 Z" id="Fill-4" fill="#FFFFFF"></path>
                <path d="M12.170808,14.506512 C13.067688,14.506512 13.516248,14.126832 13.516248,13.367472 C13.516248,13.000512 13.405128,12.733872 13.182648,12.567552 C12.960168,12.400992 12.622728,12.317952 12.170808,12.317952 L11.247768,12.317952 L11.247768,14.506512 L12.170808,14.506512 Z M12.015048,10.986672 C12.415368,10.986672 12.706248,10.895232 12.887928,10.711632 C13.069608,10.528272 13.160568,10.278672 13.160568,9.962832 C13.160568,9.647232 13.067688,9.421152 12.882408,9.284592 C12.697128,9.148032 12.411528,9.079632 12.026088,9.079632 L11.247768,9.079632 L11.247768,10.986672 L12.015048,10.986672 Z M9.613128,7.620672 L12.092808,7.620672 C12.471048,7.620672 12.821208,7.652592 13.143768,7.716672 C13.466328,7.780752 13.747848,7.893792 13.989048,8.055792 C14.229768,8.218032 14.418888,8.431392 14.556168,8.695632 C14.693208,8.960352 14.761848,9.293232 14.761848,9.694032 C14.761848,9.881952 14.737608,10.069632 14.689608,10.257312 C14.641128,10.444992 14.568888,10.619952 14.472648,10.781952 C14.376168,10.944192 14.250168,11.089152 14.094648,11.217072 C13.938888,11.345232 13.757208,11.439072 13.549608,11.498832 L13.549608,11.549952 C14.068488,11.660832 14.459688,11.874432 14.722968,12.189792 C14.986008,12.505632 15.117528,12.945072 15.117528,13.508112 C15.117528,13.934832 15.045288,14.301792 14.900808,14.608992 C14.756328,14.916192 14.556168,15.170112 14.300328,15.370512 C14.044488,15.571152 13.745928,15.720432 13.405128,15.818352 C13.064088,15.916752 12.697128,15.965712 12.304248,15.965712 L9.613128,15.965712 L9.613128,7.620672 Z" id="Fill-6" fill="#FFFFFF"></path>
                <path d="M18.78732,11.63952 C19.677,11.63952 20.12172,11.196 20.12172,10.30848 C20.12172,9.87336 20.00868,9.56616 19.7826,9.38688 C19.55628,9.2076 19.2246,9.11808 18.78732,9.11808 L17.87556,9.11808 L17.87556,11.63952 L18.78732,11.63952 Z M16.24068,7.62072 L18.8874,7.62072 C19.28028,7.62072 19.64916,7.66536 19.9938,7.75512 C20.33868,7.84464 20.63892,7.99392 20.89452,8.20296 C21.15036,8.41224 21.3522,8.68944 21.50076,9.03504 C21.64884,9.3804 21.723,9.80496 21.723,10.30848 C21.723,10.79472 21.64692,11.21712 21.495,11.57544 C21.34308,11.934 21.1374,12.22824 20.87796,12.45864 C20.61828,12.68904 20.31804,12.85992 19.97724,12.97056 C19.63596,13.08168 19.27284,13.13712 18.8874,13.13712 L17.87556,13.13712 L17.87556,15.96552 L16.24068,15.96552 L16.24068,7.62072 Z" id="Fill-8" fill="#FFFFFF"></path>
            </g>
        </g>
    </g>
</svg>