<?xml version="1.0" encoding="UTF-8"?>
<svg width="16px" height="17px" viewBox="0 0 16 17" version="1.1" xmlns="http://www.w3.org/2000/svg" xmlns:xlink="http://www.w3.org/1999/xlink">
    <!-- Generator: Sketch 42 (36781) - http://www.bohemiancoding.com/sketch -->
    <title>options-gray</title>
    <desc>Created with Sketch.</desc>
    <defs></defs>
    <g id="Symbols" stroke="none" stroke-width="1" fill="none" fill-rule="evenodd">
        <g id="icons/options-grey" transform="translate(0.000000, 1.000000)" fill="#808080">
            <path d="M7.9999998,10.7981221 C8.79455647,10.7981221 9.4737649,10.5226949 10.0376448,9.97183099 C10.6015247,9.42096706 10.8834597,8.75743669 10.8834597,7.98122066 C10.8834597,7.20500462 10.6015247,6.54147425 10.0376448,5.99061033 C9.4737649,5.4397464 8.79455647,5.16431925 7.9999998,5.16431925 C7.20544313,5.16431925 6.52623469,5.4397464 5.96235481,5.99061033 C5.39847493,6.54147425 5.11653991,7.20500462 5.11653991,7.98122066 C5.11653991,8.75743669 5.39847493,9.42096706 5.96235481,9.97183099 C6.52623469,10.5226949 7.20544313,10.7981221 7.9999998,10.7981221 Z M14.1129348,8.76995305 L15.8430107,10.084507 C16.0224268,10.2097043 16.0480584,10.3849765 15.9199029,10.6103286 L14.2667193,13.3896714 C14.1641954,13.564946 13.9975964,13.615024 13.7669196,13.5399061 L11.7292746,12.7511737 C11.1910263,13.126763 10.7296776,13.3896714 10.3452138,13.5399061 L10.0376448,15.6431925 C9.98638409,15.8685457 9.85823114,15.9812207 9.65318346,15.9812207 L6.34681613,15.9812207 C6.14176845,15.9812207 6.0136155,15.8685457 5.96235481,15.6431925 L5.65478576,13.5399061 C5.16779814,13.3395915 4.70644948,13.0766831 4.27072501,12.7511737 L2.23308003,13.5399061 C2.00240201,13.615024 1.83580391,13.564946 1.73328032,13.3896714 L0.0800966481,10.6103286 C-0.048057756,10.3849765 -0.022427264,10.2097043 0.156988912,10.084507 L1.88706484,8.76995305 C1.86143401,8.59467838 1.84861871,8.33176999 1.84861871,7.98122066 C1.84861871,7.63067132 1.86143401,7.36776293 1.88706484,7.19248826 L0.156988912,5.87793427 C-0.022427264,5.75273705 -0.048057756,5.57746479 0.0800966481,5.35211268 L1.73328032,2.57276995 C1.83580391,2.39749529 2.00240201,2.34741784 2.23308003,2.42253521 L4.27072501,3.21126761 C4.80897332,2.83567835 5.27032198,2.57276995 5.65478576,2.42253521 L5.96235481,0.319248826 C6.0136155,0.0938967136 6.14176845,-0.0187793427 6.34681613,-0.0187793427 L9.65318346,-0.0187793427 C9.85823114,-0.0187793427 9.98638409,0.0938967136 10.0376448,0.319248826 L10.3452138,2.42253521 C10.8322015,2.6228498 11.2935501,2.8857582 11.7292746,3.21126761 L13.7669196,2.42253521 C13.9975964,2.34741784 14.1641954,2.39749529 14.2667193,2.57276995 L15.9199029,5.35211268 C16.0480584,5.57746479 16.0224268,5.75273705 15.8430107,5.87793427 L14.1129348,7.19248826 C14.1385663,7.36776293 14.1513809,7.63067132 14.1513809,7.98122066 C14.1513809,8.33176999 14.1385663,8.59467838 14.1129348,8.76995305 Z" id="options-gray"></path>
        </g>
    </g>
</svg>