<?xml version="1.0" encoding="UTF-8"?>
<svg width="16px" height="16px" viewBox="0 0 16 16" version="1.1" xmlns="http://www.w3.org/2000/svg" xmlns:xlink="http://www.w3.org/1999/xlink">
    <!-- Generator: Sketch 42 (36781) - http://www.bohemiancoding.com/sketch -->
    <title>qustionMark</title>
    <desc>Created with Sketch.</desc>
    <defs></defs>
    <g id="Symbols" stroke="none" stroke-width="1" fill="none" fill-rule="evenodd">
        <g id="icons/info" fill="#808080">
            <path d="M8,0 C6.8943027,0 5.85637255,0.208883486 4.88617834,0.626654625 C3.91598413,1.04442576 3.070464,1.61410307 2.34959298,2.33570739 C1.62872278,3.0573117 1.05691265,3.90369192 0.634146341,4.87487304 C0.211380033,5.84605416 0,6.88504012 0,7.99186217 C0,9.09868422 0.211380033,10.1376702 0.634146341,11.1088513 C1.05691265,12.0800324 1.62872278,12.9264126 2.34959298,13.648017 C3.070464,14.3696204 3.91598413,14.9420122 4.88617834,15.3652086 C5.85637255,15.7884049 6.8943027,16 8,16 C9.1056973,16 10.1436274,15.7884049 11.1138217,15.3652086 C12.0840159,14.9420122 12.929536,14.3696204 13.650407,13.648017 C14.371278,12.9264126 14.9430863,12.0800324 15.3658526,11.1088513 C15.788621,10.1376702 16,9.09868422 16,7.99186217 C16,6.88504012 15.788621,5.84605416 15.3658526,4.87487304 C14.9430863,3.90369192 14.371278,3.0573117 13.650407,2.33570739 C12.929536,1.61410307 12.0840159,1.04442576 11.1138217,0.626654625 C10.1436274,0.208883486 9.1056973,0 8,0 Z M7.8699187,12.6632769 L7.83739837,12.6632769 C7.51219304,12.6524244 7.24661281,12.5384885 7.04064937,12.3214651 C6.834688,12.1044417 6.73712702,11.8385914 6.74796852,11.5239057 C6.74796852,11.209222 6.85365698,10.9487969 7.06504013,10.7426239 C7.27642328,10.536453 7.53929366,10.4333676 7.85365958,10.4333676 L7.90243902,10.4333676 C8.23848377,10.444218 8.50677385,10.5554413 8.70731759,10.7670395 C8.90785925,10.9786377 9.00813008,11.2526259 9.00813008,11.5890125 C8.99729067,11.9036982 8.88618042,12.1614107 8.67479727,12.3621564 C8.46341411,12.5629041 8.19512403,12.6632769 7.8699187,12.6632769 Z M10.6178851,7.21058043 C10.5420051,7.31909317 10.4227653,7.44387949 10.2601636,7.58494564 C10.0975599,7.7260097 9.91327948,7.87792421 9.70731603,8.04069332 L9.23577236,8.36622738 C9.10569106,8.4638876 9.00271037,8.55883312 8.92682823,8.65106812 C8.85094816,8.74330311 8.79674901,8.83825072 8.76422868,8.93591094 C8.74254777,9.01187027 8.72628657,9.07426239 8.71544715,9.12309354 C8.70460774,9.17192261 8.69376624,9.26687022 8.68292683,9.40793636 L8.68292683,9.48931884 L6.91056807,9.48931884 L6.91056807,9.34282955 C6.92140956,9.02814385 6.94037854,8.7704313 6.96747915,8.56968564 C6.99457977,8.3689379 7.07316969,8.19260991 7.20325307,8.04069332 C7.40921444,7.8128174 7.67750452,7.58223303 8.00812956,7.34893188 C8.3387546,7.11563282 8.5149055,6.99355703 8.53658433,6.98270659 C8.60162706,6.92845022 8.66124592,6.87419593 8.71544715,6.81993956 C8.76964839,6.76568319 8.81300813,6.7114289 8.84552846,6.65717253 C8.94308943,6.52695891 9.01354979,6.40759781 9.05690953,6.29908507 C9.10027135,6.19057233 9.12195018,6.08748897 9.12195018,5.98982667 C9.12195018,5.84876261 9.1029812,5.71583637 9.06504117,5.59104797 C9.02709906,5.46625957 8.96477034,5.34418586 8.87804878,5.22482268 C8.80216663,5.11630993 8.69105847,5.03492746 8.54471597,4.98067317 C8.39837346,4.9264168 8.21680286,4.89928862 8,4.89928862 C7.78319714,4.89928862 7.60162654,4.93184202 7.45528403,4.99694883 C7.30894153,5.06205565 7.19241158,5.16514108 7.10569002,5.30620723 C7.01897054,5.4472713 6.95122003,5.59376058 6.9024385,5.74567717 C6.85365906,5.89759376 6.82926829,6.04950826 6.82926829,6.20142485 L6.82926829,6.28280941 L4.99187096,6.28280941 L4.99187096,6.20142485 C5.01354979,5.63716234 5.12466003,5.15158012 5.32520377,4.74465942 C5.52574543,4.3377408 5.81571642,4.01492144 6.19512091,3.77619507 C6.42276527,3.62427849 6.68292579,3.51034469 6.97560872,3.43438536 C7.26829372,3.35842602 7.5826534,3.32044739 7.91870023,3.32044739 C8.36314537,3.32044739 8.77235616,3.37470376 9.14634094,3.48321651 C9.5203278,3.59172716 9.85907616,3.75449211 10.1626006,3.97151551 C10.4552856,4.18854099 10.6775061,4.45710399 10.8292683,4.77721282 C10.9810305,5.09732375 11.0569106,5.46897009 11.0569106,5.89216854 C11.0569106,6.13089282 11.0189705,6.36147719 10.9430884,6.58392789 C10.8672083,6.80637651 10.7588079,7.01525999 10.6178851,7.21058043 Z" id="qustionMark"></path>
        </g>
    </g>
</svg>