<?xml version="1.0" encoding="UTF-8"?>
<svg width="14px" height="16px" viewBox="0 0 14 16" version="1.1" xmlns="http://www.w3.org/2000/svg" xmlns:xlink="http://www.w3.org/1999/xlink">
    <!-- Generator: Sketch 42 (36781) - http://www.bohemiancoding.com/sketch -->
    <title>tracking</title>
    <desc>Created with Sketch.</desc>
    <defs></defs>
    <g id="Symbols" stroke="none" stroke-width="1" fill="none" fill-rule="evenodd">
        <g id="icons/tracking" transform="translate(-1.000000, 0.000000)" fill="#808080">
            <path d="M6.72727394,14.7692306 L7.68181849,10.4615372 L6.72727394,9.23076915 L5.45454566,8.61538511 L6.72727394,14.7692306 Z M9.27272829,14.7692306 L10.5454543,8.61538511 L9.27272829,9.23076915 L8.31818151,10.4615372 L9.27272829,14.7692306 Z M10.8636359,5.05769198 C10.8503791,5.03205044 10.8371224,5.0128209 10.8238634,4.99999906 C10.7575754,4.94871598 10.4393983,4.92307659 9.8693189,4.92307659 C9.40530002,4.92307659 8.85180268,4.98397229 8.20880683,5.10576799 C8.16240605,5.11858983 8.09280378,5.12499968 8,5.12499968 C7.90719622,5.12499968 7.83759617,5.11858983 7.79119317,5.10576799 C7.14819732,4.98397229 6.59469998,4.92307659 6.1306811,4.92307659 C5.56060393,4.92307659 5.24242465,4.94871598 5.17613655,4.99999906 C5.16287983,5.0128209 5.14962087,5.03205044 5.13636414,5.05769198 C5.14962087,5.17307784 5.16287983,5.25961507 5.17613655,5.317308 C5.18939328,5.33653754 5.21425187,5.35737169 5.2507101,5.37980616 C5.28716833,5.40224277 5.31202692,5.43589662 5.32528365,5.4807677 C5.33854261,5.50640924 5.36339897,5.57211448 5.3998572,5.6778834 C5.43631766,5.78365449 5.45951693,5.84935757 5.46945948,5.87499911 C5.47940425,5.90064065 5.50426061,5.9551265 5.54403525,6.03846096 C5.58380766,6.12179543 5.61197821,6.17628128 5.62855135,6.20192282 C5.64512448,6.22756436 5.67495212,6.27243544 5.71804094,6.33653821 C5.76112753,6.40064098 5.80089995,6.4439096 5.83735817,6.46634622 C5.8738164,6.48878068 5.92021718,6.51922961 5.97656273,6.55769084 C6.03290827,6.59615423 6.09090869,6.62179361 6.15056842,6.63461546 C6.21022815,6.64743515 6.2781711,6.66025485 6.35440397,6.67307669 C6.43063461,6.68589639 6.51183652,6.69230623 6.59801194,6.69230623 C6.83664863,6.69230623 7.0321965,6.65224254 7.18466001,6.57211515 C7.33712129,6.49198561 7.44483888,6.3958336 7.5078128,6.28365267 C7.57078671,6.17147389 7.61884457,6.06089758 7.65198862,5.95192157 C7.68513267,5.84294772 7.72324799,5.74839818 7.76633458,5.66826863 C7.8094234,5.58813909 7.86742381,5.5480754 7.94034027,5.5480754 L8.05965973,5.5480754 C8.13257619,5.5480754 8.19057883,5.58813909 8.23366542,5.66826863 C8.27675201,5.74839818 8.31486733,5.84294772 8.34801138,5.95192157 C8.38115543,6.06089758 8.42921329,6.17147389 8.4921872,6.28365267 C8.55516112,6.3958336 8.66287871,6.49198561 8.81534222,6.57211515 C8.9678035,6.65224254 9.16335137,6.69230623 9.40198806,6.69230623 C9.48816348,6.69230623 9.56936539,6.68589639 9.64559603,6.67307669 C9.7218289,6.66025485 9.78977185,6.64743515 9.84943158,6.63461546 C9.90909131,6.62179361 9.96709395,6.59615423 10.0234373,6.55769084 C10.0797828,6.51922961 10.1261836,6.48878068 10.1626418,6.46634622 C10.1991001,6.4439096 10.2388725,6.40064098 10.2819613,6.33653821 C10.3250479,6.27243544 10.3548777,6.22756436 10.3714487,6.20192282 C10.3880218,6.17628128 10.4161923,6.12179543 10.455967,6.03846096 C10.4957394,5.9551265 10.520598,5.90064065 10.5305405,5.87499911 C10.5404831,5.84935757 10.5636846,5.78365449 10.6001428,5.6778834 C10.636601,5.57211448 10.6614596,5.50640924 10.6747163,5.4807677 C10.6879731,5.43589662 10.7128317,5.40224277 10.7492899,5.37980616 C10.7857481,5.35737169 10.8106067,5.33653754 10.8238634,5.317308 C10.8371224,5.25961507 10.8503791,5.17307784 10.8636359,5.05769198 Z M15,13.5096152 C15,14.2852601 14.7580514,14.8942285 14.2741474,15.3365385 C13.7902434,15.7788484 13.1472587,16 12.345171,16 L3.65482903,16 C2.8527422,16 2.20975615,15.7788484 1.7258524,15.3365385 C1.24194842,14.8942285 1,14.2852601 1,13.5096152 C1,13.1185866 1.01491463,12.7403863 1.04474433,12.3749992 C1.07457402,12.0096142 1.13754688,11.6073727 1.23366475,11.168268 C1.32978271,10.7291634 1.45407122,10.3333338 1.60653405,9.98076858 C1.75899712,9.62820332 1.96945903,9.29647654 2.23792626,8.98557744 C2.50639348,8.67467835 2.8162862,8.43589864 3.16761377,8.26922971 L2.27272739,6.15384466 L4.40056897,6.15384466 C4.25473383,5.74358649 4.18181737,5.33333477 4.18181737,4.92307659 C4.18181737,4.84615197 4.18844796,4.74359012 4.20170469,4.61538457 C2.91571344,4.35897348 2.27272739,4.05128362 2.27272739,3.69230637 C2.27272739,3.32692142 2.96874303,3.00961679 4.36079656,2.74038385 C4.47348543,2.34294537 4.64417471,1.91346196 4.87286886,1.45192285 C5.101563,0.990381596 5.3352262,0.625000959 5.57386289,0.355768021 C5.78598613,0.118588622 6.03787732,-2.66453526e-15 6.32954538,-2.66453526e-15 C6.52840966,-2.66453526e-15 6.80681654,0.0993569288 7.16477269,0.298075094 C7.52272884,0.496795413 7.80113572,0.596152342 8,0.596152342 C8.19886428,0.596152342 8.47727116,0.496795413 8.83522731,0.298075094 C9.19318346,0.0993569288 9.47159034,-2.66453526e-15 9.67045462,-2.66453526e-15 C9.96212268,-2.66453526e-15 10.2140139,0.118588622 10.4261371,0.355768021 C10.6647738,0.625000959 10.898437,0.990381596 11.1271311,1.45192285 C11.3558253,1.91346196 11.5265146,2.34294537 11.6392057,2.74038385 C13.0312579,3.00961679 13.7272739,3.32692142 13.7272739,3.69230637 C13.7272739,4.05128362 13.084287,4.35897348 11.7982953,4.61538457 C11.8446983,5.1346166 11.7784102,5.64743233 11.5994333,6.15384466 L13.7272739,6.15384466 L12.9119317,8.31730786 C13.3295476,8.52884572 13.6858422,8.83813805 13.9808245,9.2451913 C14.2758067,9.65224456 14.4928967,10.1121769 14.6321035,10.6249991 C14.7713081,11.1378234 14.8674238,11.6233951 14.9204552,12.0817315 C14.9734865,12.5400656 15,13.0160226 15,13.5096152 Z" id="tracking"></path>
        </g>
    </g>
</svg>